<?xml version="1.0" encoding="UTF-8"?><!DOCTYPE svg PUBLIC "-//W3C//DTD SVG 1.1//EN" "http://www.w3.org/Graphics/SVG/1.1/DTD/svg11.dtd"><svg xmlns="http://www.w3.org/2000/svg" xmlns:dc="http://purl.org/dc/elements/1.1/" xmlns:cc="http://creativecommons.org/ns#" xmlns:rdf="https://www.w3.org/1999/02/22-rdf-syntax-ns#" xmlns:svg="https://www.w3.org/2000/svg"><defs><style>.cls-1{fill:#231f20;}</style>
			<rect id="SVGID_5_" x="1.19" y="0.13" width="8.34" height="8.36"/>
		</defs><symbol id="accidentforgiveness" viewBox="0 0 10.72 8.59"><title>icon-set-v7</title><path d="M5.13,0A9.14,9.14,0,0,0,1.9.6L8.26,4.25A12.26,12.26,0,0,0,9.15.93,9.26,9.26,0,0,0,5.13,0Z"/><path d="M5.13,8.59a12.34,12.34,0,0,0,2-2.32L1.58,3.07A12.18,12.18,0,0,0,5.13,8.59Z"/></symbol><symbol id="airplane" viewBox="0 0 9.391 9.39">
<g>
	<path d="M8.575,2.316L7.497,3.395l1.071,4.662c0.021,0.081-0.014,0.167-0.08,0.221L7.631,8.921c-0.033,0.027-0.08,0.04-0.128,0.04
		c-0.013,0-0.026,0-0.047-0.007c-0.06-0.013-0.113-0.047-0.141-0.107L5.447,5.445L3.712,7.179l0.355,1.299
		c0.02,0.074,0,0.147-0.054,0.208L3.37,9.33C3.33,9.37,3.27,9.39,3.216,9.39c-0.006,0-0.006,0-0.013,0
		C3.136,9.383,3.082,9.356,3.042,9.303L1.776,7.615L0.088,6.349c-0.054-0.034-0.08-0.094-0.087-0.154
		c-0.007-0.06,0.021-0.121,0.061-0.167l0.643-0.65c0.04-0.04,0.101-0.06,0.154-0.06c0.021,0,0.04,0,0.054,0.007l1.3,0.355
		l1.734-1.735L0.544,2.075C0.483,2.042,0.443,1.981,0.43,1.914C0.423,1.854,0.443,1.78,0.49,1.733l0.857-0.857
		c0.054-0.047,0.134-0.073,0.201-0.053l4.454,1.065l1.072-1.072C7.718,0.173,8.79-0.256,9.218,0.173
		C9.648,0.601,9.218,1.673,8.575,2.316z"/>
</g>
</symbol><symbol id="airports" viewBox="0 0 10.723 8.594">
<path d="M5.307,5.789l-0.01-1.464l1.245-0.482l0.556-2.085H6.681H5.687l0.438-1.112H6.097h-0.32H4.526V0.264h0.521V0.056h-0.66
	h-0.66v0.208h0.521v0.382H2.997h-0.32H2.65l0.438,1.112H2.094H1.677l0.556,2.085l1.21,0.468L3.414,8.538h0.938h0.035h0.834h0.104
	h3.721V5.789H5.307z M4.36,0.994h0.055H5.64L5.339,1.759H4.387H3.435L3.134,0.994H4.36z M4.387,3.427H4.352H3.449h-0.91L2.205,2.176
	h2.182h2.182L6.236,3.427H5.291H4.387z M6.507,7.492H5.569V6.589h0.938V7.492z M8.244,7.492H7.306V6.589h0.938V7.492z"/>
</symbol><symbol id="alert" viewBox="0 0 512 512">

<path id="warning-6-icon" d="M239.939,231.352h32.121v97.421h-32.121V231.352z M256,379.019c-9.574,0-17.334-7.761-17.334-17.334

	c0-9.574,7.76-17.335,17.334-17.335c9.573,0,17.334,7.761,17.334,17.335C273.334,371.258,265.573,379.019,256,379.019z M256,78.07

	L50,434.873h412L256,78.07z M256,158.07l136.718,236.803H119.282L256,158.07z"/>

</symbol><symbol id="aopa-coloredicon" viewBox="0 0 10.723 8.594">
<g>
	<g>
		<path fill="#00A1E4" d="M4.518,3.728l0.701-1.568l0.873,1.967L6.849,4.32L5.579,1.514C5.55,1.448,5.484,1.406,5.412,1.406H5.041
			c-0.071,0-0.136,0.042-0.165,0.107L3.939,3.582L4.518,3.728z"/>
		<polygon fill="#00A1E4" points="6.945,6.051 7.449,7.188 8.147,7.188 7.675,6.146 		"/>
		<polygon fill="#00A1E4" points="3.052,5.543 2.308,7.188 2.972,7.188 3.671,5.623 		"/>
		<g>
			<path fill="#58595B" d="M10.354,6.012l0.039-0.155L5.462,4.606l0.094-0.542L5.429,4.031L5.266,4.556L0.368,3.314L0.329,3.469
				l4.479,1.285L4.75,4.982L3.711,4.773L3.692,4.846L3.674,4.92l-0.002,0.01l1.023,0.315C4.696,5.348,4.75,5.542,5.106,5.631
				C5.47,5.723,5.617,5.572,5.671,5.484L6.57,5.665l0.019-0.073l0.019-0.073l0.002-0.01L5.745,5.242l0.06-0.235L10.354,6.012z"/>
		</g>
	</g>
</g>
</symbol><symbol id="aopa-icon" viewBox="0 0 10.723 8.594">
<g>
	<path d="M5.219,2.161l0.873,1.967L6.849,4.32L5.579,1.514C5.55,1.448,5.484,1.406,5.412,1.406H5.041
		c-0.071,0-0.136,0.042-0.165,0.107L3.939,3.582l0.579,0.147L5.219,2.161z"/>
	<polygon points="6.945,6.051 7.449,7.188 8.147,7.188 7.675,6.146 	"/>
	<polygon points="2.308,7.188 2.972,7.188 3.671,5.623 3.052,5.543 	"/>
	<path d="M5.462,4.606l0.094-0.542L5.429,4.031L5.266,4.556L0.368,3.314L0.329,3.469l4.479,1.285L4.75,4.982L3.711,4.773
		L3.692,4.846L3.674,4.92l-0.002,0.01l1.023,0.315C4.696,5.348,4.75,5.542,5.106,5.631C5.47,5.723,5.617,5.572,5.671,5.484
		L6.57,5.665l0.019-0.073l0.019-0.073l0.003-0.01L5.745,5.242l0.06-0.235l4.55,1.005l0.039-0.155L5.462,4.606z"/>
</g>
</symbol><symbol id="aopago" viewBox="0 0 10.723 8.594">
<g>
	<path fill="none" d="M2.397,2.923l0.157,0.09c0.075,0.043,0.164,0.055,0.249,0.032c0.085-0.023,0.156-0.077,0.199-0.152l0,0
		l0.024-0.041c0.09-0.156,0.036-0.356-0.12-0.446L2.397,2.114L2.152,1.972L2.043,1.91c-0.05-0.029-0.106-0.044-0.162-0.044
		c-0.029,0-0.058,0.004-0.086,0.011C1.71,1.901,1.639,1.954,1.596,2.03L1.572,2.07c-0.09,0.156-0.036,0.356,0.12,0.446l0.459,0.265
		L2.397,2.923z"/>
	<path fill="none" d="M2.397,4.111l0.157,0.09c0.075,0.043,0.164,0.055,0.249,0.032c0.085-0.023,0.156-0.077,0.199-0.152
		l0.024-0.041c0.09-0.156,0.036-0.356-0.12-0.446L2.397,3.302L2.152,3.16L2.043,3.098c-0.05-0.029-0.106-0.044-0.162-0.044
		c-0.029,0-0.058,0.004-0.086,0.011C1.71,3.088,1.639,3.142,1.596,3.217L1.572,3.258c-0.09,0.156-0.036,0.356,0.12,0.446
		l0.459,0.265L2.397,4.111z"/>
	<path fill="none" d="M6.922,1.849H2.43l0.598,0.345c0.274,0.158,0.368,0.508,0.21,0.782L3.215,3.016
		c-0.076,0.132-0.2,0.226-0.348,0.266C2.864,3.283,2.861,3.283,2.858,3.284l0.17,0.098C3.302,3.54,3.396,3.89,3.238,4.163
		L3.215,4.204C3.138,4.336,3.015,4.43,2.866,4.47C2.864,4.471,2.861,4.471,2.858,4.472l0.17,0.098
		c0.274,0.158,0.368,0.508,0.21,0.782L3.215,5.392c-0.076,0.132-0.2,0.226-0.348,0.266C2.864,5.658,2.861,5.659,2.858,5.659
		l0.17,0.098c0.274,0.158,0.368,0.508,0.21,0.782L3.215,6.579C3.199,6.607,3.18,6.632,3.16,6.657h0.153h0.244h3.364V5.523V5.135
		V1.849z"/>
	<path d="M8.729,7.288L8.721,7.284C8.705,7.263,8.644,7.153,8.706,6.789c0.09-0.53,0.433-2.41,0.462-2.57
		c0.029-0.084,0.093-0.391-0.365-0.753c-0.447-0.353-1.04-0.888-1.046-0.893l-0.022-0.02L7.707,2.545
		C7.696,2.542,7.419,2.468,7.211,2.626c-0.015,0.012-0.03,0.025-0.044,0.038V0.539C7.167,0.242,6.925,0,6.627,0H2.692
		C2.394,0,2.152,0.242,2.152,0.539V1.69c-0.129-0.069-0.277-0.087-0.42-0.049c-0.148,0.04-0.272,0.134-0.348,0.266L1.36,1.948
		c-0.158,0.273-0.064,0.624,0.21,0.782l0.17,0.098C1.737,2.828,1.734,2.828,1.731,2.829c-0.148,0.04-0.272,0.134-0.348,0.266
		L1.36,3.135c-0.158,0.273-0.064,0.624,0.21,0.782l0.17,0.098C1.737,4.015,1.734,4.016,1.731,4.016
		c-0.148,0.04-0.272,0.134-0.348,0.266L1.36,4.323c-0.158,0.273-0.064,0.624,0.21,0.782l0.17,0.098
		C1.737,5.203,1.734,5.204,1.731,5.204C1.583,5.244,1.459,5.338,1.383,5.47L1.36,5.511c-0.158,0.273-0.064,0.624,0.21,0.782
		l0.582,0.335V8.06c0,0.297,0.243,0.539,0.541,0.539h1.796h0.175h0.175h1.789c0.298,0,0.541-0.242,0.541-0.539V5.223l0.866-1.057
		L7.866,4.108C7.363,3.935,7.248,3.755,7.248,3.145c0-0.158,0.037-0.266,0.111-0.323c0.085-0.065,0.206-0.055,0.258-0.046
		C7.735,2.882,8.25,3.341,8.651,3.658C9.008,3.94,8.939,4.131,8.94,4.131L8.932,4.147L8.929,4.164
		c-0.004,0.02-0.371,2.032-0.465,2.584c-0.09,0.529,0.045,0.694,0.122,0.743l1.115,1.107h0.174h0.174L8.729,7.288z M3.818,0.866
		h1.707v0.227H3.818V0.866z M1.692,2.517c-0.157-0.09-0.21-0.29-0.12-0.446L1.596,2.03C1.639,1.954,1.71,1.901,1.795,1.878
		C1.824,1.87,1.852,1.866,1.881,1.866c0.057,0,0.112,0.015,0.162,0.044l0.108,0.062l0.246,0.142l0.508,0.293
		c0.157,0.09,0.21,0.29,0.12,0.446L3.002,2.894l0,0C2.958,2.969,2.888,3.023,2.803,3.045C2.718,3.068,2.629,3.057,2.554,3.013
		l-0.157-0.09L2.152,2.781L1.692,2.517z M1.692,3.705c-0.157-0.09-0.21-0.29-0.12-0.446l0.024-0.041
		C1.639,3.142,1.71,3.088,1.795,3.066c0.029-0.008,0.057-0.011,0.086-0.011c0.057,0,0.112,0.015,0.162,0.044L2.152,3.16l0.246,0.142
		l0.508,0.293c0.157,0.09,0.21,0.29,0.12,0.446L3.002,4.081C2.958,4.157,2.888,4.211,2.803,4.233
		C2.718,4.256,2.629,4.245,2.554,4.201l-0.157-0.09L2.152,3.969L1.692,3.705z M1.692,4.892c-0.157-0.09-0.21-0.29-0.12-0.446
		l0.024-0.041C1.639,4.33,1.71,4.276,1.795,4.253c0.029-0.008,0.057-0.011,0.086-0.011c0.057,0,0.112,0.015,0.162,0.044l0.108,0.062
		l0.246,0.142l0.508,0.293c0.157,0.09,0.21,0.29,0.12,0.446L3.002,5.269C2.958,5.344,2.888,5.398,2.803,5.421
		C2.718,5.444,2.629,5.432,2.554,5.389l-0.157-0.09L2.152,5.157L1.692,4.892z M1.692,6.08c-0.157-0.09-0.21-0.29-0.12-0.447
		l0.024-0.041C1.639,5.518,1.71,5.464,1.795,5.441C1.824,5.433,1.852,5.43,1.881,5.43c0.057,0,0.112,0.015,0.162,0.044l0.108,0.062
		l0.246,0.142L2.905,5.97c0.157,0.09,0.21,0.29,0.12,0.446L3.002,6.457C2.958,6.532,2.888,6.586,2.803,6.609
		C2.718,6.631,2.629,6.62,2.554,6.577l-0.157-0.09L2.152,6.345L1.692,6.08z M4.671,7.904c-0.185,0-0.334-0.149-0.334-0.333
		c0-0.184,0.15-0.333,0.334-0.333S5.006,7.386,5.006,7.57C5.006,7.754,4.856,7.904,4.671,7.904z M6.922,6.657H3.558H3.313H3.16
		c0.02-0.024,0.038-0.05,0.054-0.077l0.024-0.041c0.158-0.273,0.064-0.624-0.21-0.782l-0.17-0.098
		c0.003-0.001,0.005-0.001,0.008-0.002c0.148-0.04,0.272-0.134,0.348-0.266l0.024-0.041c0.158-0.273,0.064-0.624-0.21-0.782
		l-0.17-0.098C2.861,4.471,2.864,4.471,2.866,4.47c0.148-0.04,0.272-0.134,0.348-0.266l0.024-0.041
		C3.396,3.89,3.302,3.54,3.028,3.382l-0.17-0.098c0.003-0.001,0.005-0.001,0.008-0.002c0.148-0.04,0.272-0.134,0.348-0.266
		l0.024-0.041c0.158-0.273,0.064-0.624-0.21-0.782L2.43,1.849h4.492v3.286v0.388V6.657z M7.624,4.277L7.167,4.835V3.934
		C7.261,4.072,7.405,4.183,7.624,4.277z"/>
</g>
</symbol><symbol id="arrow"><path id="SvgjsPath1013" d="M537.726 1178.99L536.991 1179.71L544.271 1186.8700000000001L545.006 1186.15ZM536.986 1192.29L537.721 1193.01L543.961 1186.87L543.226 1186.1499999999999Z " fill="#54585a" transform="matrix(1,0,0,1,-536,-1178)"/></symbol><symbol id="backtotop" viewBox="0 0 10 9">
<path d="M0.799,1.128V0.115h9.125v1.014H0.799z M8.403,5.022l-0.81,0.814L5.868,4.121v4.358H4.854V4.121L3.13,5.836L2.32,5.022
	l3.042-3.025L8.403,5.022z"/>
</symbol><symbol id="bed" viewBox="0 0 10.72 8.59">
<g>
	<path d="M10.02,5.29c0.17,0,0.31,0.14,0.31,0.31v2.18H9.09V6.53H1.63v1.24H0.39v-5.9c0-0.17,0.14-0.31,0.31-0.31h0.62
		c0.17,0,0.31,0.14,0.31,0.31v3.42H10.02z M3.19,2.49c-0.68,0-1.24,0.56-1.24,1.24S2.5,4.98,3.19,4.98s1.24-0.56,1.24-1.24
		S3.87,2.49,3.19,2.49z M10.33,4.67c0-1.03-0.84-1.86-1.86-1.86H5.05c-0.17,0-0.31,0.14-0.31,0.31v1.86h5.59V4.67z"/>
</g>
</symbol><symbol id="breadcrumb-back-arrow" viewBox="-371 208 216 146">
<path d="M-255.5,280.4c0-0.7-0.4-1.2-1.1-1.2h-6.7l2.8-2.8c0.2-0.2,0.4-0.5,0.4-0.9c0-0.3-0.1-0.6-0.4-0.9l-0.7-0.7
	c-0.2-0.2-0.5-0.4-0.9-0.4c-0.3,0-0.6,0.1-0.9,0.4l-6.2,6.3c-0.2,0.2-0.4,0.5-0.4,0.9s0.1,0.6,0.4,0.9l6.2,6.3
	c0.2,0.2,0.5,0.4,0.9,0.4c0.3,0,0.6-0.1,0.9-0.4l0.7-0.7c0.2-0.2,0.4-0.5,0.4-0.9c0-0.3-0.1-0.6-0.4-0.9l-2.8-2.8h6.7
	c0.7,0,1.1-0.6,1.1-1.2V280.4z"/>
</symbol><symbol id="breadcrumbbackarrow" viewBox="-270 273 16 16">
<path d="M-255.5,280.4c0-0.7-0.4-1.2-1.1-1.2h-6.7l2.8-2.8c0.2-0.2,0.4-0.5,0.4-0.9c0-0.3-0.1-0.6-0.4-0.9l-0.7-0.7
	c-0.2-0.2-0.5-0.4-0.9-0.4c-0.3,0-0.6,0.1-0.9,0.4l-6.2,6.3c-0.2,0.2-0.4,0.5-0.4,0.9s0.1,0.6,0.4,0.9l6.2,6.3
	c0.2,0.2,0.5,0.4,0.9,0.4c0.3,0,0.6-0.1,0.9-0.4l0.7-0.7c0.2-0.2,0.4-0.5,0.4-0.9c0-0.3-0.1-0.6-0.4-0.9l-2.8-2.8h6.7
	c0.7,0,1.1-0.6,1.1-1.2V280.4z"/>
</symbol><symbol id="calendar" viewBox="-371 208 216 146">
<path d="M-198.3,232c-2.1-2.1-4.5-3.1-7.3-3.1h-10.4V221c0-3.6-1.3-6.7-3.8-9.2c-2.6-2.6-5.6-3.8-9.2-3.8h-5.2
	c-3.6,0-6.7,1.3-9.2,3.8c-2.6,2.6-3.8,5.6-3.8,9.2v7.8h-31.3V221c0-3.6-1.3-6.7-3.8-9.2c-2.6-2.6-5.6-3.8-9.2-3.8h-5.2
	c-3.6,0-6.7,1.3-9.2,3.8c-2.6,2.6-3.8,5.6-3.8,9.2v7.8h-10.4c-2.8,0-5.3,1-7.3,3.1c-2.1,2.1-3.1,4.5-3.1,7.3v104.3
	c0,2.8,1,5.3,3.1,7.3c2.1,2.1,4.5,3.1,7.3,3.1h114.7c2.8,0,5.3-1,7.3-3.1c2.1-2.1,3.1-4.5,3.1-7.3V239.3
	C-195.2,236.5-196.2,234-198.3,232z M-296.9,343.6h-23.5v-23.5h23.5V343.6z M-296.9,314.9h-23.5v-26.1h23.5V314.9z M-296.9,283.6
	h-23.5v-23.5h23.5V283.6z M-298.7,246.3c-0.5-0.5-0.8-1.1-0.8-1.8V221c0-0.7,0.3-1.3,0.8-1.8c0.5-0.5,1.1-0.8,1.8-0.8h5.2
	c0.7,0,1.3,0.3,1.8,0.8c0.5,0.5,0.8,1.1,0.8,1.8v23.5c0,0.7-0.3,1.3-0.8,1.8c-0.5,0.5-1.1,0.8-1.8,0.8h-5.2
	C-297.6,247.1-298.2,246.8-298.7,246.3z M-265.6,343.6h-26.1v-23.5h26.1V343.6z M-265.6,314.9h-26.1v-26.1h26.1V314.9z
	 M-265.6,283.6h-26.1v-23.5h26.1V283.6z M-234.3,343.6h-26.1v-23.5h26.1V343.6z M-234.3,314.9h-26.1v-26.1h26.1V314.9z
	 M-234.3,283.6h-26.1v-23.5h26.1V283.6z M-236.2,246.3c-0.5-0.5-0.8-1.1-0.8-1.8V221c0-0.7,0.3-1.3,0.8-1.8c0.5-0.5,1.1-0.8,1.8-0.8
	h5.2c0.7,0,1.3,0.3,1.8,0.8c0.5,0.5,0.8,1.1,0.8,1.8v23.5c0,0.7-0.3,1.3-0.8,1.8c-0.5,0.5-1.1,0.8-1.8,0.8h-5.2
	C-235,247.1-235.6,246.8-236.2,246.3z M-205.6,343.6h-23.5v-23.5h23.5V343.6z M-205.6,314.9h-23.5v-26.1h23.5V314.9z M-205.6,283.6
	h-23.5v-23.5h23.5V283.6z"/>
</symbol><symbol id="car" viewBox="0 0 10.72 8.59">
<g>
	<path d="M10.49,6.69c0,0.09-0.07,0.16-0.16,0.16H9.85v0.64c0,0.53-0.43,0.96-0.96,0.96S7.94,8.02,7.94,7.49V6.85h-5.1v0.64
		c0,0.53-0.43,0.96-0.96,0.96S0.93,8.02,0.93,7.49V6.85H0.45c-0.09,0-0.16-0.07-0.16-0.16V4.78c0-0.62,0.5-1.11,1.12-1.11h0.14
		l0.52-2.09c0.15-0.63,0.76-1.1,1.41-1.1H7.3c0.65,0,1.25,0.47,1.41,1.1l0.52,2.09h0.14c0.62,0,1.12,0.5,1.12,1.11V6.69z M1.89,4.46
		c-0.44,0-0.8,0.36-0.8,0.8c0,0.44,0.36,0.8,0.8,0.8s0.8-0.36,0.8-0.8C2.69,4.82,2.33,4.46,1.89,4.46z M7.92,3.67L7.48,1.89
		C7.46,1.83,7.36,1.75,7.3,1.75H3.48c-0.06,0-0.16,0.08-0.17,0.13L2.86,3.67H7.92z M8.9,4.46c-0.44,0-0.8,0.36-0.8,0.8
		c0,0.44,0.36,0.8,0.8,0.8c0.44,0,0.8-0.36,0.8-0.8C9.69,4.82,9.33,4.46,8.9,4.46z"/>
</g>
</symbol><symbol id="checkmark" viewBox="0 0 10.723 8.594">
<path d="M5.361,0.16c-2.281,0-4.137,1.856-4.137,4.137S3.08,8.433,5.361,8.433c2.281,0,4.137-1.856,4.137-4.137
	S7.642,0.16,5.361,0.16z M5.361,7.744c-1.901,0-3.447-1.546-3.447-3.447S3.46,0.85,5.361,0.85c1.901,0,3.447,1.546,3.447,3.447
	S7.262,7.744,5.361,7.744z M7.019,2.548C6.854,2.453,6.643,2.509,6.548,2.674c0,0-1.113,1.929-1.45,2.512
	C4.736,4.824,4.12,4.208,4.12,4.208c-0.134-0.135-0.352-0.135-0.487,0c-0.135,0.135-0.135,0.353,0,0.488l1.295,1.295
	C5.004,6.067,5.11,6.103,5.217,6.089c0.106-0.014,0.2-0.076,0.254-0.17l1.675-2.901C7.24,2.854,7.184,2.643,7.019,2.548z"/>
</symbol><symbol id="checkmark2" viewBox="0 0 10.7 8.6">
<g>
	<path d="M7.9,7.4h-6v-6h5.4l1.3-1.1H1.3C1,0.3,0.8,0.5,0.8,0.8v7.1c0,0.3,0.2,0.5,0.5,0.5h7.1C8.8,8.5,9,8.2,9,7.9V3.5L7.9,4.8V7.4
		z"/>
	<path d="M10.3,0.4c-0.3-0.3-0.7-0.3-1-0.1L5.1,4.1L4.1,3C3.8,2.7,3.3,2.6,2.9,2.9C2.6,3.2,2.5,3.7,2.8,4.1l1.5,2
		c0,0,0.1,0.1,0.1,0.1c0.4,0.4,1,0.3,1.4-0.1l0,0l4.5-4.9C10.5,1.1,10.5,0.7,10.3,0.4z"/>
</g>
</symbol><symbol id="clock" viewBox="0 0 512 512">
<path id="time-icon" d="M367,295.5H227.5V142h45v108.5H367V295.5z M256,95c-88.992,0-161,72.022-161,161
	c0,88.992,72.023,161,161,161c88.992,0,161-72.023,161-161C417,167.007,344.977,95,256,95 M256,50c113.771,0,206,92.229,206,206
	s-92.229,206-206,206S50,369.771,50,256S142.229,50,256,50z"/>
</symbol><symbol id="closing" viewBox="0 0 10.7 8.6">
<path fill-rule="evenodd" clip-rule="evenodd" d="M5.4,0.6c0.5,0,0.9,0.2,0.9,0.5c0,0.3-0.4,0.4-0.9,0.4c-0.5,0-0.9-0.1-0.9-0.4
	C4.5,0.8,4.9,0.6,5.4,0.6L5.4,0.6z M2.4,8h5.9v0.5H2.4V8L2.4,8z M5.4,0.1c1.7,0,2,1.6,1.2,2.8C6.3,3.2,6.1,3.5,6.1,4.2
	c0,0.4,0.2,0.7,0.5,0.7v0.7H4.1V4.9c0.3,0,0.5-0.3,0.5-0.7c0-0.6-0.2-0.9-0.4-1.3C3.4,1.7,3.7,0.1,5.4,0.1L5.4,0.1z M2.4,5.9h5.9
	c0.2,0,0.4,0.2,0.4,0.4v0.9c0,0.2-0.2,0.4-0.4,0.4H2.4C2.2,7.6,2,7.4,2,7.2V6.3C2,6.1,2.2,5.9,2.4,5.9L2.4,5.9z"/>
</symbol><symbol id="cloud" viewBox="0 0 10.723 7.863">
<g>
	<path d="M8.578,7.863H2.502C1.122,7.863,0,6.741,0,5.361c0-1,0.592-1.865,1.44-2.262C1.436,3.021,1.43,2.938,1.43,2.859
		C1.43,1.279,2.709,0,4.289,0c1.195,0,2.217,0.731,2.647,1.776C7.182,1.558,7.506,1.43,7.863,1.43c0.787,0,1.43,0.642,1.43,1.43
		c0,0.285-0.084,0.547-0.229,0.771c0.949,0.224,1.658,1.072,1.658,2.089C10.723,6.903,9.762,7.863,8.578,7.863z"/>
</g>
</symbol><symbol id="cloudy" viewBox="-223 25 512 512">
<g>
	<g>
		<g>
			<path d="M184.5,243.8c-23.7-47.7-72.3-78.1-126-78.1c-0.8,0-1.7,0-2.5,0c-1.4-5.2-3.2-10.1-5.4-14.9C35.5,117.9,2.4,95-36.1,95
				c-7.6,0-15,1-22.1,2.7c6,9.4,9.6,20.6,9.6,32.6c0,33.4-27,60.5-60.3,60.5c-7.9,0-15.5-1.6-22.4-4.4c-0.1,1.5-0.2,2.9-0.2,4.4
				c0,9.6,1.4,18.8,4,27.5c1.2,4.1,2.7,8,4.4,11.9c-30.2,20.9-49.9,55.8-49.9,95.3c0,63.9,51.8,115.9,115.5,115.9
				c16.7,0,33.1-3.7,48.2-10.7c20.7,11.5,43.9,17.5,67.8,17.5c31.8,0,62.4-10.7,87.1-30.3c1,0,1.9,0,2.8,0
				c49.9,0,90.5-40.7,90.5-90.8C239,290.4,217.5,258,184.5,243.8z M148.5,377.6c-1.9,0-4.1-0.2-6.7-0.5l-9.2-1.2l-6.9,6.2
				c-18.5,16.6-42.3,25.8-67.2,25.8c-20,0-39.4-5.9-55.9-17L-8,383.7l-10.9,6.6c-11.7,7.1-25.1,10.8-38.6,10.8
				c-41.5,0-75.3-33.9-75.3-75.6c0-41.7,33.8-75.5,75.3-75.5c5.4,0,11,0.7,16.7,1.9l12.4,2.8l7.8-10C-1.4,220.1,27.5,206,58.5,206
				c40.5,0,76.9,24.2,92.7,61.6l3.6,8.6l8.8,2.8c21,6.7,35.2,26,35.2,48.1C198.8,354.9,176.2,377.6,148.5,377.6z"/>
		</g>
	</g>
</g>
</symbol><symbol id="comments" viewBox="0 0 10.72 8.59">
<g>
	<g>
		<path d="M10.72,5.23c0-0.88-0.58-1.65-1.47-2.11c0.01,0.11,0.02,0.22,0.02,0.33c0,0.59-0.15,1.16-0.45,1.69
			C8.55,5.63,8.17,6.06,7.68,6.43C7.07,6.89,6.34,7.22,5.55,7.4c0.52,0.25,1.14,0.39,1.8,0.39c0.32,0,0.62-0.03,0.91-0.09
			C8.73,8.08,9.4,8.47,9.99,8.21C9.75,7.86,9.58,7.52,9.46,7.22C10.23,6.75,10.72,6.03,10.72,5.23z"/>
	</g>
	<path d="M8.32,3.45c0-1.74-1.86-3.15-4.16-3.15C1.86,0.3,0,1.71,0,3.45C0,4.44,0.6,5.32,1.55,5.9C1.41,6.27,1.2,6.69,0.9,7.12
		c0.16,0.07,0.33,0.1,0.5,0.1c0.59,0,1.19-0.37,1.64-0.74C3.4,6.56,3.77,6.6,4.16,6.6C6.46,6.6,8.32,5.19,8.32,3.45z M6.77,5.23
		C6.08,5.75,5.15,6.04,4.16,6.04c-0.34,0-0.68-0.03-1.01-0.1L2.9,5.88L2.69,6.05C2.4,6.28,2.12,6.46,1.87,6.56
		c0.07-0.15,0.14-0.3,0.2-0.46l0.16-0.43L1.84,5.43c-0.82-0.5-1.28-1.22-1.28-1.98c0-0.66,0.35-1.3,1-1.78
		c0.69-0.52,1.62-0.81,2.61-0.81c0.99,0,1.92,0.29,2.61,0.81c0.64,0.49,1,1.12,1,1.78C7.77,4.11,7.41,4.75,6.77,5.23z"/>
</g>
</symbol><symbol id="creditcard" viewBox="0 0 10.723 8.594">
<g>
	<path d="M10.723,0.909V7.7c0,0.492-0.402,0.894-0.894,0.894H0.894C0.402,8.594,0,8.192,0,7.7V0.909
		c0-0.492,0.402-0.894,0.894-0.894h8.936C10.32,0.016,10.723,0.417,10.723,0.909z M0.715,0.909V2.16h9.293V0.909
		c0-0.095-0.084-0.179-0.179-0.179H0.894C0.799,0.73,0.715,0.814,0.715,0.909z M10.008,7.7V4.305H0.715V7.7
		c0,0.095,0.084,0.179,0.179,0.179h8.936C9.924,7.879,10.008,7.795,10.008,7.7z M1.43,6.449h1.43v0.715H1.43V6.449z M3.574,6.449
		h2.145v0.715H3.574V6.449z"/>
</g>
</symbol><symbol id="destinations" viewBox="0 0 10.72 8.59">
<path d="M9.1,4.15H8.78l-0.2,0.37h0.26l0.59,1.51C9.06,6.23,8.7,6.49,8.39,6.81c-0.3,0.3-0.55,0.64-0.75,1.01H7.41l-0.5-2.8
	L6.45,4.15H5.89c-0.09-0.01-0.18-0.01-0.27,0h-4l-1.6,4.03h10.66L9.1,4.15z M4.26,4.52h0.31C4.45,4.6,4.33,4.69,4.21,4.79L4.26,4.52
	z M1.88,4.52h2.01L3.76,5.22C3.54,5.46,3.33,5.71,3.13,5.94C2.79,6.36,2.47,6.76,2.18,6.89C1.77,7.1,1.28,7.1,0.87,7.06L1.88,4.52z
	 M3.3,7.82H0.57l0.16-0.41C0.9,7.43,1.07,7.45,1.26,7.45c0.36,0,0.74-0.06,1.08-0.23C2.7,7.05,3.03,6.65,3.42,6.18
	C3.49,6.09,3.57,6,3.64,5.91L3.3,7.82z M3.68,7.82l0.43-2.43c0.45-0.46,0.94-0.82,1.53-0.87h0.81l0.58,3.29H3.68z M8.65,7.07
	c0.28-0.28,0.59-0.51,0.93-0.7l0.57,1.44H8.06C8.22,7.55,8.42,7.3,8.65,7.07z"/>
<g>
	<g>
		<g>
			<path fill-rule="evenodd" clip-rule="evenodd" d="M6.13,2.92L6.13,2.92C6,2.68,5.93,2.4,5.93,2.1c0-0.94,0.76-1.69,1.69-1.69
				c0.94,0,1.69,0.76,1.69,1.69c0,0.3-0.08,0.58-0.21,0.82L7.62,5.7L6.13,2.92L6.13,2.92z M7.62,1.35c-0.42,0-0.75,0.34-0.75,0.75
				c0,0.42,0.34,0.75,0.75,0.75c0.42,0,0.75-0.34,0.75-0.75C8.37,1.69,8.04,1.35,7.62,1.35z"/>
		</g>
	</g>
</g>
</symbol><symbol id="documents" viewBox="0 0 512 512">
<path id="note-17-icon" d="M370.845,339.166H209.821v-30h161.023V339.166z M370.845,280.749H209.821v-30h161.023V280.749z
	 M370.845,223.416H209.821v-30h161.023V223.416z M170.166,421.825V156.714H409.5c0,0,0,133.5,0,165.25
	c0,50.953-70.109,33.833-70.109,33.833s16.609,66.028-32,66.028C275.328,421.825,288.508,421.825,170.166,421.825z M449.5,320.417
	V116.714H130.166v345.111H308C376.165,461.825,449.5,381.819,449.5,320.417z M97.5,420.942V85.333h311V50.175h-346v370.768H97.5z"/>
</symbol><symbol id="documents2" viewBox="0 0 10.7 8.6">
<g>
	<rect x="3.9" y="1.6" width="1.9" height="0.2"/>
	<polygon points="5.7,2.2 5.4,2.2 3.4,2.2 3.1,2.2 3.1,2.5 3.6,2.5 5.2,2.5 5.7,2.5 	"/>
	<polygon points="7.4,4 6.7,4 6.4,4 5.6,4 5.6,4 5.6,4.3 5.7,4.3 6.4,4.3 6.7,4.3 7.4,4.3 	"/>
	<polygon points="7.4,5.8 6.7,5.8 6.7,5.8 6.4,5.8 5.6,5.8 4.8,5.8 4.8,5.9 4.8,6.1 5.6,6.1 6.7,6.1 6.7,6.1 7.4,6.1 	"/>
	<polygon points="7.4,6.4 6.5,6.4 5.7,6.4 4.8,6.4 4.8,6.7 5.8,6.7 6.4,6.7 7.4,6.7 	"/>
	<polygon points="5.9,7.1 4.8,7.1 4.8,7.3 5.9,7.3 6.4,7.3 7.4,7.3 7.4,7.1 6.4,7.1 	"/>
	<polygon points="7.4,5.2 6.7,5.2 6.7,5.2 6.4,5.2 5.5,5.2 4.8,5.2 4.8,5.5 5.5,5.5 6.4,5.5 6.7,5.5 6.7,5.5 7.4,5.5 	"/>
	<polygon points="7.4,4.6 7.1,4.6 6.7,4.6 6.4,4.6 5.1,4.6 4.8,4.6 4.8,4.7 4.8,4.9 5.3,4.9 5.7,4.9 6.4,4.9 6.7,4.9 6.9,4.9 
		7.4,4.9 	"/>
	<path d="M6.7,2.5V0.1H3.9v0.3h2.6v2.1H5.6v0.3h0.9h0.3h1.4v5.6H4V6.2V5.9v-1V4.7V4.3v0h1.2V4V3.7V3.4V3.1V2.8V2.5L4.9,2.8H3.8H3.1
		v0.2h0.8h0.9L4.3,3.4H3.9H3.1v0.2h0.8h0.2L3.8,4v0H3.1v0.2h0.7v0.4H3.1v0.2h0.7v1H2.3V1.9h1.2V0.1L2.1,1.6v4.6h1.7v2.4h3.4h0.9h0.3
		V2.5H6.7z M5,3.7V4H4.2l0,0l0.3-0.3l0.2-0.2L5,3.2l0,0v0.3V3.7z M2.5,1.6l0.8-0.8l0,0v0.9L2.5,1.6L2.5,1.6z"/>
</g>
</symbol><symbol id="donate" viewBox="-150 260 800 120">
<path id="christmas-gift-icon" d="M231,462H68.125V257.669H231V462z M231,160.669H50v67h181V160.669z M281,462h162.875V257.669H281
	V462z M281,160.669v67h181v-67H281z M297.884,115.669h37.032c27.667,0,26.667-35.669,5.426-35.669
	C323.958,80,311.271,95.335,297.884,115.669z M349.342,50c63.574,0,62.908,90.669-0.426,90.669c-37.999,0-91.166,0-91.166,0
	C270.423,113.044,295.916,50,349.342,50z M175.158,80c-21.241,0-22.241,35.669,5.426,35.669h37.032
	C204.229,95.335,191.542,80,175.158,80z M166.158,50c53.426,0,78.919,63.044,91.592,90.669c0,0-53.167,0-91.166,0
	C103.25,140.669,102.584,50,166.158,50z"/>
</symbol><symbol id="down-sortarrow" viewBox="-371 208 216 146">
<style type="text/css">
	.st0{fill-rule:evenodd;clip-rule:evenodd;}
</style>
<path class="st0" d="M-262.5,284l6-6h-12L-262.5,284"/>
</symbol><symbol id="downarrow-thin" viewBox="-371 208 216 146">
<g>
	<g>
		<path d="M-255.5,277.2l-0.7-0.7l-7.2,7.3l0.7,0.7L-255.5,277.2z M-263.4,283.5l0.7-0.7l-6.1-6.2l-0.7,0.7L-263.4,283.5z"/>
	</g>
</g>
</symbol><symbol id="downarrow" viewBox="-305 255 84 50">
<path d="M-222.3,264.1c0-0.7-0.3-1.3-0.8-1.9l-4.1-4.1c-0.5-0.5-1.2-0.8-1.9-0.8c-0.7,0-1.3,0.3-1.9,0.8l-32,32l-32-32
	c-0.5-0.5-1.2-0.8-1.9-0.8s-1.3,0.3-1.9,0.8l-4.1,4.1c-0.5,0.5-0.8,1.2-0.8,1.9s0.3,1.3,0.8,1.9l38,38c0.5,0.5,1.2,0.8,1.9,0.8
	s1.3-0.3,1.9-0.8l38-38C-222.6,265.4-222.3,264.8-222.3,264.1z"/>
</symbol><symbol id="download" viewBox="0 0 11.146 10.281">
<g>
	<path d="M11.146,9.683c0,0.355-0.288,0.643-0.643,0.643H0.643C0.288,10.326,0,10.038,0,9.683V7.54c0-0.355,0.288-0.643,0.643-0.643
		h3.115l0.904,0.911C4.91,8.049,5.231,8.183,5.573,8.183s0.663-0.134,0.911-0.375l0.911-0.911h3.108
		c0.354,0,0.643,0.288,0.643,0.643V9.683z M8.876,4.197L5.875,7.198C5.794,7.285,5.681,7.325,5.573,7.325s-0.221-0.04-0.302-0.127
		L2.271,4.197C2.144,4.076,2.11,3.889,2.177,3.728c0.067-0.154,0.222-0.261,0.396-0.261h1.715V0.466
		c0-0.234,0.194-0.429,0.429-0.429h1.715c0.234,0,0.429,0.194,0.429,0.429v3.001h1.715c0.174,0,0.328,0.107,0.396,0.261
		C9.036,3.889,9.003,4.076,8.876,4.197z M8.146,8.611c-0.234,0-0.429,0.194-0.429,0.429s0.194,0.429,0.429,0.429
		c0.234,0,0.429-0.194,0.429-0.429S8.38,8.611,8.146,8.611z M9.86,8.611c-0.234,0-0.429,0.194-0.429,0.429S9.626,9.469,9.86,9.469
		s0.429-0.194,0.429-0.429S10.095,8.611,9.86,8.611z"/>
</g>
</symbol><symbol id="downsortarrow" viewBox="-270 277 14 8">
<path class="st0" d="M-262.5,284l6-6h-12L-262.5,284"/>
</symbol><symbol id="email" viewBox="-371 208 216 146">
<g>
	<path d="M-322,259c1.8,1.3,7.4,5.2,16.7,11.6s16.4,11.4,21.3,14.9c0.5,0.4,1.7,1.2,3.5,2.5c1.8,1.3,3.2,2.3,4.4,3.1
		c1.2,0.8,2.6,1.7,4.2,2.6c1.7,1,3.2,1.7,4.7,2.2c1.5,0.5,2.8,0.7,4.1,0.7h0.1h0.1c1.2,0,2.6-0.2,4.1-0.7c1.5-0.5,3-1.2,4.7-2.2
		c1.7-1,3.1-1.9,4.2-2.6c1.2-0.8,2.6-1.8,4.4-3.1s2.9-2.1,3.5-2.5c5-3.5,17.7-12.3,38.1-26.5c4-2.8,7.3-6.1,9.9-10
		c2.7-3.9,4-8,4-12.3c0-3.6-1.3-6.7-3.9-9.2s-5.6-3.8-9.2-3.8H-323c-4.2,0-7.4,1.4-9.7,4.2c-2.3,2.8-3.4,6.4-3.4,10.6
		c0,3.4,1.5,7.1,4.5,11.1S-325.4,256.7-322,259z"/>
	<path d="M-198.1,267.7c-17.8,12.1-31.3,21.4-40.6,28.1c-3.1,2.3-5.6,4.1-7.5,5.3c-1.9,1.3-4.5,2.6-7.7,3.9c-3.2,1.3-6.2,2-9,2h-0.1
		h-0.1c-2.8,0-5.8-0.7-9-2c-3.2-1.3-5.8-2.6-7.7-3.9c-1.9-1.3-4.4-3.1-7.5-5.3c-7.3-5.4-20.8-14.7-40.5-28.1
		c-3.1-2.1-5.8-4.4-8.2-7.1v64.7c0,3.6,1.3,6.7,3.8,9.2c2.6,2.6,5.6,3.8,9.2,3.8H-203c3.6,0,6.7-1.3,9.2-3.8
		c2.6-2.6,3.8-5.6,3.8-9.2v-64.7C-192.3,263.2-195.1,265.6-198.1,267.7z"/>
</g>
</symbol><symbol id="faawings" viewBox="0 0 10.72 8.59">
<g>
</g>
<g>
	<path d="M10.5,3.23c-0.12,0-3.41,0.1-3.41,0.1C7.05,3.33,7,3.37,6.95,3.4C7,3.56,7.03,3.73,7.03,3.91c0,0.93-0.75,1.68-1.68,1.68
		c-0.93,0-1.68-0.75-1.68-1.68c0-0.18,0.03-0.36,0.09-0.53C3.72,3.35,3.68,3.33,3.65,3.33c0,0-3.29-0.1-3.41-0.1
		C0.13,3.23,0.01,3.25,0,3.32c-0.01,0.07,0.32,0.3,0.46,0.36S0.6,3.77,0.55,3.82C0.49,3.86,0.41,3.9,0.46,3.97s0.34,0.26,0.45,0.28
		C1.02,4.27,0.92,4.34,0.92,4.4c0,0.07,0.02,0.3,0.9,0.4C2.54,4.89,2.37,4.9,2.38,4.92c0.01,0.03-0.55,0.39-0.53,0.46
		C1.87,5.45,1.81,5.62,2.4,5.53c0,0,0.22,0.32,0.53,0.14c0,0-0.08,0.44,0.5,0.08c0,0-0.03,0.2,0.24,0.13
		c0.16-0.04,0.41-0.21,0.62-0.36C4.53,5.72,4.97,5.99,5.37,6l0,0c0,0,0.01,0,0.01,0s0.01,0,0.01,0l0,0
		c0.39-0.01,0.83-0.27,1.07-0.46c0.21,0.15,0.46,0.31,0.61,0.35c0.28,0.07,0.24-0.13,0.24-0.13c0.58,0.36,0.49-0.08,0.49-0.08
		c0.31,0.18,0.53-0.14,0.53-0.14c0.59,0.09,0.53-0.08,0.55-0.14S8.35,4.95,8.36,4.92S8.2,4.89,8.92,4.81c0.87-0.1,0.9-0.34,0.9-0.4
		c0-0.07-0.1-0.13,0.01-0.15s0.4-0.2,0.45-0.28s-0.03-0.12-0.08-0.16c-0.06-0.04-0.06-0.08,0.08-0.13s0.47-0.29,0.46-0.36
		C10.73,3.25,10.61,3.23,10.5,3.23z"/>
	<path d="M5.35,5.22c0.72,0,1.31-0.59,1.31-1.31c0-0.72-0.59-1.31-1.31-1.31c-0.72,0-1.31,0.59-1.31,1.31
		C4.04,4.63,4.63,5.22,5.35,5.22z M5.35,2.86c0.58,0,1.04,0.47,1.04,1.05c0,0.58-0.47,1.04-1.04,1.04c-0.58,0-1.05-0.47-1.05-1.04
		C4.31,3.33,4.78,2.86,5.35,2.86z"/>
</g>
</symbol><symbol id="facebook" viewBox="0 0 512 512">

<path id="facebook-icon" d="M204.067,184.692h-43.144v70.426h43.144V462h82.965V254.238h57.882l6.162-69.546h-64.044

	c0,0,0-25.97,0-39.615c0-16.398,3.302-22.89,19.147-22.89c12.766,0,44.896,0,44.896,0V50c0,0-47.326,0-57.441,0

	c-61.734,0-89.567,27.179-89.567,79.231C204.067,174.566,204.067,184.692,204.067,184.692z"/>

</symbol><symbol id="flag" viewBox="0 0 10.723 8.594">
<g>
	<path d="M1.614,1.341v7.06c0,0.095-0.083,0.178-0.178,0.178H1.077C0.983,8.58,0.9,8.496,0.9,8.402v-7.06
		C0.683,1.212,0.543,0.984,0.543,0.728c0-0.396,0.318-0.714,0.714-0.714S1.97,0.332,1.97,0.728C1.97,0.984,1.83,1.212,1.614,1.341z
		 M10.18,5.34c0,0.206-0.129,0.284-0.29,0.368C9.259,6.048,8.563,6.355,7.831,6.355c-1.025,0-1.516-0.781-2.732-0.781
		c-0.887,0-1.819,0.402-2.588,0.814C2.45,6.421,2.394,6.438,2.327,6.438c-0.196,0-0.357-0.161-0.357-0.357V1.943
		c0-0.134,0.067-0.229,0.173-0.306c0.134-0.09,0.295-0.168,0.44-0.24C3.287,1.04,4.14,0.728,4.932,0.728
		c0.875,0,1.561,0.29,2.337,0.653C7.426,1.459,7.587,1.486,7.76,1.486c0.875,0,1.817-0.759,2.063-0.759
		c0.196,0,0.357,0.161,0.357,0.357V5.34z"/>
</g>
</symbol><symbol id="flightplanner" viewBox="0 0 10.723 8.594">
<path d="M5.041,0.201c0.077,0,0.138,0.045,0.166,0.066L6.41,1.348l0.77,0.777L7.69,1.685c0.055-0.038,0.102-0.051,0.14-0.051
	c0.058,0,0.097,0.03,0.116,0.049l0.006,0.006l0.212-0.086c0.01-0.004,0.02-0.006,0.031-0.006c0.023,0,0.047,0.01,0.064,0.029
	c0.024,0.022,0.033,0.06,0.02,0.092L8.193,1.929l0.006,0.006C8.229,1.966,8.292,2.052,8.2,2.186L7.756,2.702l0.775,0.767L9.611,4.67
	c0.037,0.05,0.139,0.189-0.011,0.337L9.198,5.41C9.17,5.43,9.109,5.475,9.032,5.475c-0.05,0-0.107-0.019-0.165-0.077L6.952,3.501
	L5.78,4.396l0.444,0.606c0.104,0.114-0.052,0.272-0.111,0.332C6.002,5.443,5.92,5.491,5.85,5.491c-0.001,0-0.002,0-0.002,0
	C5.81,5.491,5.776,5.476,5.75,5.451L4.432,4.132C4.405,4.106,4.391,4.071,4.39,4.034C4.389,3.963,4.437,3.881,4.547,3.769
	c0.046-0.045,0.149-0.147,0.246-0.147c0.03,0,0.06,0.01,0.087,0.035l0.606,0.444L6.38,2.929L4.485,1.015
	C4.337,0.867,4.438,0.729,4.472,0.684l0.006-0.006l0.398-0.396C4.933,0.221,4.991,0.201,5.041,0.201 M5.041-0.018L5.041-0.018
	c-0.082,0-0.205,0.025-0.323,0.145L4.322,0.522L4.316,0.527L4.311,0.534L4.305,0.54L4.3,0.547L4.295,0.554
	C4.066,0.865,4.264,1.104,4.33,1.171l1.76,1.777L5.442,3.797L5.017,3.485C4.952,3.431,4.875,3.403,4.792,3.403
	c-0.187,0-0.336,0.147-0.4,0.21L4.391,3.614L4.39,3.616C4.28,3.728,4.168,3.867,4.171,4.038c0.001,0.094,0.039,0.183,0.106,0.25
	l1.318,1.318C5.66,5.671,5.747,5.708,5.841,5.71l0.002,0l0.007,0c0.169,0,0.305-0.111,0.417-0.22L6.268,5.49l0.001-0.002
	C6.573,5.18,6.484,4.969,6.396,4.864L6.084,4.44l0.849-0.648l1.78,1.762C8.829,5.67,8.951,5.695,9.032,5.695
	c0.149,0,0.255-0.078,0.295-0.108l0.013-0.01l0.012-0.012l0.403-0.403c0.066-0.065,0.267-0.305,0.032-0.622L9.781,4.531L9.774,4.523
	L8.694,3.323L8.69,3.318L8.685,3.313L8.056,2.69l0.311-0.361L8.375,2.32l0.007-0.01c0.103-0.151,0.102-0.293,0.057-0.403L8.482,1.8
	c0.046-0.113,0.019-0.245-0.068-0.33C8.356,1.411,8.277,1.377,8.195,1.377c-0.039,0-0.077,0.007-0.114,0.022L7.974,1.443
	C7.929,1.424,7.88,1.415,7.83,1.415c-0.089,0-0.178,0.03-0.264,0.089l-0.01,0.007L7.547,1.519L7.191,1.825L6.566,1.194L6.561,1.19
	L6.556,1.185L5.354,0.104L5.346,0.096L5.337,0.09C5.297,0.06,5.19-0.018,5.041-0.018L5.041-0.018L5.041-0.018z"/>
<path d="M4.891,5.368L4.489,4.966L3.273,6.181C3.062,6.046,2.82,5.975,2.568,5.975c-0.727,0-1.318,0.591-1.318,1.318
	s0.591,1.318,1.318,1.318c0.727,0,1.318-0.591,1.318-1.318c0-0.255-0.072-0.499-0.21-0.712L4.891,5.368z M2.564,8.064
	c-0.44,0-0.797-0.357-0.797-0.797c0-0.44,0.357-0.797,0.797-0.797s0.797,0.357,0.797,0.797C3.361,7.708,3.004,8.064,2.564,8.064z"/>
</symbol><symbol id="fork-knife" viewBox="0 0 9.432 12.025">
<g>
	<path d="M4.287,4.737c0,0.542-0.349,1.032-0.857,1.212v5.218c0,0.469-0.389,0.857-0.857,0.857H1.715
		c-0.469,0-0.857-0.389-0.857-0.857V5.949C0.349,5.769,0,5.279,0,4.737V0.45c0-0.234,0.194-0.429,0.429-0.429
		S0.857,0.215,0.857,0.45v2.787c0,0.234,0.194,0.429,0.429,0.429s0.429-0.194,0.429-0.429V0.45c0-0.234,0.194-0.429,0.429-0.429
		S2.572,0.215,2.572,0.45v2.787c0,0.234,0.194,0.429,0.429,0.429S3.43,3.471,3.43,3.236V0.45c0-0.234,0.194-0.429,0.429-0.429
		S4.287,0.215,4.287,0.45V4.737z M9.432,11.167c0,0.469-0.389,0.857-0.857,0.857H7.717c-0.469,0-0.857-0.389-0.857-0.857v-3.43h-1.5
		c-0.114,0-0.215-0.101-0.215-0.214V2.165c0-1.179,0.965-2.144,2.144-2.144h1.715c0.234,0,0.429,0.194,0.429,0.429V11.167z"/>
</g>
</symbol><symbol id="googleplus" viewBox="0 0 10.723 8.594">

	<path id="SVGID_1_" d="M3.461,3.822v1.14h1.886c-0.076,0.489-0.57,1.435-1.886,1.435c-1.136,0-2.062-0.941-2.062-2.1
				c0-1.159,0.927-2.1,2.062-2.1c0.646,0,1.079,0.276,1.326,0.513l0.903-0.87c-0.58-0.542-1.33-0.87-2.228-0.87
				c-1.839,0-3.326,1.487-3.326,3.326c0,1.839,1.487,3.326,3.326,3.326c1.92,0,3.193-1.349,3.193-3.25
				c0-0.219-0.024-0.385-0.052-0.551H3.461L3.461,3.822L3.461,3.822z M3.461,3.822"/>
	<polyline id="SVGID_3_" points="10.588,3.822 9.638,3.822 9.638,2.871 8.687,2.871 8.687,3.822 7.737,3.822 7.737,4.772 
				8.687,4.772 8.687,5.722 9.638,5.722 9.638,4.772 10.588,4.772 			"/>
</symbol><symbol id="grad-cap" viewBox="0 0 11.566 7.711">
<g>
	<path d="M11.456,2.083L5.833,3.851c-0.02,0.005-0.035,0.005-0.05,0.005s-0.03,0-0.05-0.005L2.46,2.816
		C2.174,3.042,1.973,3.594,1.933,4.272c0.19,0.111,0.316,0.312,0.316,0.547c0,0.226-0.115,0.422-0.291,0.537L2.249,7.53
		c0.005,0.045-0.01,0.09-0.04,0.125S2.134,7.711,2.088,7.711H1.125c-0.046,0-0.091-0.02-0.121-0.055S0.959,7.575,0.964,7.53
		l0.291-2.174C1.079,5.241,0.964,5.045,0.964,4.819c0-0.241,0.136-0.447,0.326-0.557c0.03-0.587,0.181-1.22,0.492-1.657L0.11,2.083
		C0.045,2.058,0,1.998,0,1.928s0.045-0.13,0.11-0.156l5.623-1.767C5.753,0,5.769,0,5.783,0s0.03,0,0.05,0.005l5.623,1.767
		c0.065,0.025,0.11,0.085,0.11,0.156S11.521,2.058,11.456,2.083z M8.996,5.141c0.04,0.708-1.44,1.285-3.213,1.285
		S2.53,5.849,2.57,5.141l0.091-1.586l2.881,0.909c0.081,0.025,0.161,0.035,0.241,0.035s0.16-0.01,0.241-0.035l2.881-0.909
		L8.996,5.141z"/>
</g>
</symbol><symbol id="grid" viewBox="-223 25 512 512">
<path d="M81.6,330.1h-98.2v-98.1h98.2V330.1z M-16.6,75v98.1h98.2V75H-16.6z M-173.1,330.1h97.6v-98.1h-97.6V330.1z M140.5,173.1
	h98.6V75h-98.6V173.1z M81.6,487v-98.1h-98.2V487H81.6z M-75.5,388.9h-97.6V487h97.6V388.9z M239.1,231.9h-98.6v98.1h98.6V231.9z
	 M140.5,388.9V487h98.6v-98.1H140.5z M-75.5,173.1V75h-97.6v98.1H-75.5z"/>
</symbol><symbol id="hamburger" viewBox="0 0 10.7 8.6">
<g>
	<g>
		<path d="M0,1.1v1.1h10.7V1.1H0z M0,4.8h10.7v-1H0V4.8z M0,7.5h10.7v-1H0V7.5z"/>
	</g>
</g>
</symbol><symbol id="home" viewBox="0 0 100.00001 100"><path d="m 50,6.28125 c -0.372577,0 -0.745764,0.120781 -1.03125,0.40625 -13.581081,13.58122 -28.350527,28.381865 -42.25,42.28125 -2.2839098,2.283927 -2.2838923,5.966073 0,8.25 2.283945,2.283928 5.96609,2.283928 8.25,0 L 50,22.15625 85.03125,57.21875 c 2.28391,2.283928 5.96609,2.283928 8.25,0 2.28391,-2.283927 2.28391,-5.966073 0,-8.25 C 80.74519,36.432725 65.601189,21.257491 51.03125,6.6875 50.745764,6.402031 50.372577,6.28125 50,6.28125 z m 0,20.375 -34.96875,35 0,30.65625 c 0,0.779063 0.627205,1.40625 1.40625,1.40625 l 67.125,0 c 0.779063,0 1.40625,-0.627187 1.40625,-1.40625 l 0,-30.65625 -34.96875,-35 z m 0,19.75 c 0.8042,0 1.541445,0.598906 2.09375,1.53125 C 52.645879,48.870021 53,50.165448 53,51.65625 L 53,59.75 68.71875,72.59375 a 0.31818257,0.31818257 0 0 1 0.125,0.25 l 0,3.53125 a 0.31818257,0.31818257 0 0 1 -0.4375,0.3125 L 53,70.84375 53,75.625 c 0,0.932169 -0.198865,1.987031 -0.25,2.25 l 4.84375,3.96875 a 0.31818257,0.31818257 0 0 1 0.125,0.25 l 0,2.8125 a 0.31818257,0.31818257 0 0 1 -0.03125,0.125 0.31818257,0.31818257 0 0 1 -0.40625,0.15625 L 50,82.46875 42.6875,85.1875 A 0.31818257,0.31818257 0 0 1 42.40625,85.15625 0.31818257,0.31818257 0 0 1 42.3125,85.0625 0.31818257,0.31818257 0 0 1 42.28125,84.90625 l 0,-2.8125 a 0.31818257,0.31818257 0 0 1 0.09375,-0.25 L 47.21875,77.875 c -0.0515,-0.262793 -0.25,-1.317304 -0.25,-2.25 l 0,-4.78125 -15.375,5.84375 A 0.31818257,0.31818257 0 0 1 31.1875,76.53125 0.31818257,0.31818257 0 0 1 31.15625,76.375 l 0,-3.53125 a 0.31818257,0.31818257 0 0 1 0.125,-0.25 L 46.96875,59.75 l 0,-8.09375 c 1.76e-4,-1.490802 0.385722,-2.786581 0.9375,-3.71875 C 48.457676,47.005156 49.197557,46.40625 50,46.40625 z" transform="translate(0,-5e-6)" style="" fill="#000000" fill-opacity="1" fill-rule="nonzero" stroke="none"/></symbol><symbol id="image-document" viewBox="0 0 10.289 12.004">
<g>
	<path d="M10.289,3.644v7.717c0,0.355-0.288,0.643-0.644,0.643H0.643C0.288,12.004,0,11.716,0,11.361V0.643C0,0.288,0.288,0,0.643,0
		h6.002C7,0,7.495,0.208,7.743,0.456l2.09,2.09C10.081,2.793,10.289,3.289,10.289,3.644z M9.432,4.287H6.645
		c-0.354,0-0.643-0.288-0.643-0.643V0.857H0.857v10.289h8.574V4.287z M1.715,5.573c0-0.71,0.576-1.286,1.286-1.286
		s1.286,0.576,1.286,1.286S3.711,6.859,3.001,6.859S1.715,6.283,1.715,5.573z M8.574,10.289H1.715V9.003l1.286-1.286l0.857,0.857
		l2.572-2.572l2.144,2.144V10.289z M6.859,3.43h2.519C9.338,3.316,9.277,3.202,9.23,3.155L7.134,1.059
		C7.087,1.012,6.973,0.951,6.859,0.911V3.43z"/>
</g>
</symbol><symbol id="instagram" viewBox="0 0 512 512">
<path id="instagram-6-icon" fill-rule="evenodd" clip-rule="evenodd" d="M414.474,224.292h-35.869
	c2.613,10.145,4.156,20.744,4.156,31.699c0,70.023-56.752,126.773-126.761,126.773s-126.763-56.75-126.763-126.773
	c0-10.955,1.549-21.555,4.162-31.699H97.53V398.61c0,8.742,7.096,15.832,15.86,15.832h285.219c8.766,0,15.864-7.09,15.864-15.832
	V224.292z M414.474,113.378c0-8.75-7.099-15.846-15.864-15.846h-47.526c-8.756,0-15.846,7.096-15.846,15.846v47.545
	c0,8.744,7.09,15.846,15.846,15.846h47.526c8.766,0,15.864-7.102,15.864-15.846V113.378z M256,176.769
	c-43.763,0-79.233,35.463-79.233,79.223c0,43.756,35.471,79.24,79.233,79.24c43.759,0,79.237-35.484,79.237-79.24
	C335.237,212.231,299.759,176.769,256,176.769 M414.474,461.999H97.53c-26.246,0-47.53-21.289-47.53-47.557V97.532
	c0-26.254,21.284-47.531,47.53-47.531h316.943c26.25,0,47.526,21.277,47.526,47.531v316.91
	C462,440.71,440.724,461.999,414.474,461.999"/>
</symbol><symbol id="jump" viewBox="0 0 10.723 8.594">
<g>
	<path d="M6.728,3.614v4.399c0,0.331-0.267,0.598-0.598,0.598S5.533,8.344,5.533,8.013v-2.05H5.19v2.05
		c0,0.331-0.267,0.598-0.598,0.598S3.995,8.344,3.995,8.013V3.614L2.436,2.054c-0.198-0.203-0.198-0.523,0-0.725
		c0.203-0.198,0.523-0.198,0.725,0l1.217,1.217h1.966l1.217-1.217c0.203-0.198,0.523-0.198,0.725,0c0.198,0.203,0.198,0.523,0,0.725
		L6.728,3.614z M5.361,2.375c-0.662,0-1.195-0.534-1.195-1.196S4.7-0.017,5.361-0.017s1.195,0.534,1.195,1.196
		S6.023,2.375,5.361,2.375z"/>
</g>
</symbol><symbol id="jumplink-arrow" viewBox="0 0 11.133 11.133">
<g>
	<path d="M5.566,11.133C2.493,11.133,0,8.64,0,5.566S2.493,0,5.566,0s5.566,2.493,5.566,5.566S8.64,11.133,5.566,11.133z
		 M1.623,5.566c0,2.174,1.769,3.943,3.943,3.943S9.51,7.741,9.51,5.566S7.741,1.624,5.566,1.624S1.623,3.392,1.623,5.566z
		 M8.045,5.972L5.733,8.284C5.683,8.328,5.624,8.35,5.566,8.35S5.45,8.328,5.399,8.284L3.08,5.965
		C3.016,5.893,2.993,5.798,3.029,5.711s0.124-0.145,0.218-0.145h1.392V3.015c0-0.13,0.102-0.232,0.232-0.232h1.391
		c0.131,0,0.232,0.102,0.232,0.232v2.551h1.392c0.131,0,0.231,0.102,0.231,0.232C8.117,5.864,8.089,5.921,8.045,5.972z"/>
</g>
</symbol><symbol id="leftarrow-thin" viewBox="-371 208 216 146">
<g>
	<g>
		<path d="M-259.2,273.5l-7.3,7.2l0.7,0.7l7.3-7.2L-259.2,273.5z M-264.7,280.7l-0.7,0.7l6.2,6.1l0.7-0.7L-264.7,280.7z"/>
	</g>
</g>
</symbol><symbol id="leftarrow" viewBox="-320 244 98 49">
<path transform="rotate(90 -266 270)" d="M-222.3,264.1c0-0.7-0.3-1.3-0.8-1.9l-4.1-4.1c-0.5-0.5-1.2-0.8-1.9-0.8c-0.7,0-1.3,0.3-1.9,0.8l-32,32l-32-32
	c-0.5-0.5-1.2-0.8-1.9-0.8s-1.3,0.3-1.9,0.8l-4.1,4.1c-0.5,0.5-0.8,1.2-0.8,1.9s0.3,1.3,0.8,1.9l38,38c0.5,0.5,1.2,0.8,1.9,0.8
	s1.3-0.3,1.9-0.8l38-38C-222.6,265.4-222.3,264.8-222.3,264.1z"/>
</symbol><symbol id="lefttriangle" viewBox="-309 238 68 48">
<path transform="rotate(90 -247 270)" d="M-222.3,264.1c-0.7,0-1.3,0.3-1.9,0.8l-32,32l-32-32z"/>
</symbol><symbol id="length" viewBox="0 0 10.72 8.59"><title>icon-set-v7</title><g id="Livello_5" data-name="Livello 5"><path class="cls-1" d="M8,4.3A0.33,0.33,0,0,0,7.67,4h-2V2h0A0.33,0.33,0,1,0,5,2V4.3a0.33,0.33,0,0,0,.33.33H7.67A0.33,0.33,0,0,0,8,4.3m1,0A3.62,3.62,0,1,1,5.36.68,3.62,3.62,0,0,1,9,4.3m0.66,0A4.28,4.28,0,1,0,5.36,8.57,4.28,4.28,0,0,0,9.64,4.3"/></g></symbol><symbol id="levels" viewBox="0 0 10.72 8.59"><title>icon-set-v7</title><path d="M10.7,6.59h0a0.26,0.26,0,0,1-.26.26H8.17a0.26,0.26,0,1,1,0-.51h2c0-.09,0-0.17,0-0.26a4.85,4.85,0,0,0-9.7,0c0,0.09,0,.17,0,0.26h2a0.26,0.26,0,1,1,0,.51H0.28A0.26,0.26,0,0,1,0,6.6H0c0-.17,0-0.33,0-0.5a5.36,5.36,0,0,1,10.72,0C10.72,6.25,10.71,6.42,10.7,6.59Zm-7-3a0.27,0.27,0,0,1,.3,0v0A11.16,11.16,0,0,1,6.71,6,1.22,1.22,0,0,1,6.22,7.7a1.36,1.36,0,0,1-1.81-.46,10.42,10.42,0,0,1-.84-3.43v0A0.24,0.24,0,0,1,3.71,3.56ZM4.87,7a0.81,0.81,0,0,0,.69.38A0.82,0.82,0,0,0,6,7.27a0.76,0.76,0,0,0,.37-0.46,0.71,0.71,0,0,0-.08-0.57A9.87,9.87,0,0,0,4.19,4.36,9.27,9.27,0,0,0,4.87,7Z"/></symbol><symbol id="list" viewBox="-223 25 512 512">
<path d="M237.7,330.1H-14.9v-98.1h252.7V330.1z M-14.9,75v98.1h252.7V75H-14.9z M-171.5,330.1h97.6v-98.1h-97.6V330.1z M237.7,487
	v-98.1H-14.9V487H237.7z M-73.8,388.9h-97.6V487h97.6V388.9z M-73.8,173.1V75h-97.6v98.1H-73.8z"/>
</symbol><symbol id="lock-icon"><path id="SvgjsPath1007" d="M226 1081.33L226 1095L246 1095L246 1081.33ZM231.901 1075.25C231.901 1073.06 233.74 1071.28 236 1071.28C238.26 1071.28 240.099 1073.06 240.099 1075.25L240.099 1079.36L243.47699999999998 1079.36L243.47699999999998 1075.25C243.47699999999998 1071.25 240.12299999999996 1068 235.99999999999997 1068C231.87699999999998 1068 228.52299999999997 1071.25 228.52299999999997 1075.25L228.52299999999997 1079.36L231.90099999999995 1079.36ZM237.242 1088.37C236.946 1088.6299999999999 236.777 1089.01 236.777 1089.3999999999999L236.777 1090.8999999999999L235.22299999999998 1090.8999999999999L235.22299999999998 1089.3999999999999C235.22299999999998 1089.0099999999998 235.05399999999997 1088.6299999999999 234.75799999999998 1088.37C234.39999999999998 1088.04 234.176 1087.58 234.176 1087.07C234.176 1086.09 234.993 1085.3 236 1085.3C237.008 1085.3 237.824 1086.09 237.824 1087.07C237.824 1087.58 237.60000000000002 1088.04 237.24200000000002 1088.37Z " fill="#8c97ad" transform="matrix(1,0,0,1,-226,-1068)"/></symbol><symbol id="lock" viewBox="0 0 512 512">
<path id="lock-3-icon" d="M195.334,223.333h-50v-62.666C145.334,99.645,194.979,50,256,50c61.022,0,110.667,49.645,110.667,110.667
	v62.666h-50v-62.666C316.667,127.215,289.452,100,256,100c-33.451,0-60.666,27.215-60.666,60.667V223.333z M404,253.333V462H108
	V253.333H404z M283,341c0-14.912-12.088-27-27-27s-27,12.088-27,27c0,7.811,3.317,14.844,8.619,19.773
	c4.385,4.075,6.881,9.8,6.881,15.785V399.5h23v-22.941c0-5.989,2.494-11.708,6.881-15.785C279.683,355.844,283,348.811,283,341z"/>
</symbol><symbol id="logo" viewBox="-569 238.2 216 131.5">
<g>
	<g>
		<g>
			<path fill="#001D34" d="M-469.1,257V249c0-0.2-0.1-0.3-0.3-0.4l-0.9-0.5l-1,0.5v0.7l0.9,0.4v6.6L-469.1,257z"/>
			<path fill="#001D34" d="M-466,258.7c0.3,0.1,0.6,0,0.7-0.2l1.1-2.5c0.2-0.4,0.3-1.1,0.3-1.8c0-1-0.1-1.5-0.4-2.1
				c-0.3-0.6-0.7-1.1-1.3-1.4c-0.6-0.3-1.1-0.4-1.4-0.1c-0.3,0.3-0.4,0.6-0.4,1.7c0,1.1,0.1,1.7,0.4,2.2c0.2,0.5,0.6,0.9,1,1.1
				c0.1,0,0.2,0.1,0.4,0.1l-1.2,2.5L-466,258.7z M-466,254.3c-0.1-0.3-0.2-0.7-0.2-1.3c0-0.5,0-1,0.1-1.1c0,0,0.1,0,0.1,0
				c0.1,0,0.1,0,0.2,0.1c0.2,0.1,0.3,0.2,0.4,0.4c0.1,0.3,0.2,0.7,0.2,1.3c0,0.5,0,1-0.1,1.1c-0.1,0.1-0.2,0-0.3,0
				C-465.8,254.6-465.9,254.5-466,254.3z"/>
			<path fill="#001D34" d="M-462.5,258.4v0.6c0,0.6,0.1,1.1,0.5,1.6c0.3,0.5,0.7,0.9,1.2,1.2c0.3,0.2,0.7,0.3,0.9,0.3
				c0.1,0,0.2,0,0.3-0.1c0.5-0.2,0.5-0.7,0.5-1.7c0-0.7,0-1.1-0.2-1.6c-0.1-0.2-0.2-0.4-0.4-0.7c0.1,0,0.3-0.1,0.3-0.3
				c0.2-0.3,0.2-0.7,0.2-1.2c0-0.8-0.2-1.4-0.5-2c-0.3-0.5-0.7-0.9-1.2-1.1c-0.5-0.3-0.9-0.3-1.2-0.2c-0.3,0.2-0.5,0.5-0.5,1.1v0.5
				l1.3,0.7V255c0-0.2,0-0.4,0.2-0.4c0.1,0,0.1,0,0.2,0.1c0.1,0.1,0.3,0.2,0.3,0.4c0.1,0.2,0.1,0.4,0.1,1c0,0.6,0,0.8-0.1,0.9
				c0,0-0.1,0-0.3,0l-0.5-0.3v1.2l0.4,0.2c0.2,0.1,0.3,0.2,0.4,0.4c0.1,0.2,0.2,0.5,0.2,1.3c0,0.6,0,0.9-0.2,1c-0.1,0.1-0.2,0-0.3,0
				c-0.3-0.2-0.5-0.5-0.5-0.9v-0.6L-462.5,258.4z"/>
			<path fill="#001D34" d="M-455.6,256.3c-0.6-0.3-1.1-0.4-1.4-0.1c-0.3,0.3-0.4,0.6-0.4,1.7c0,1.1,0.1,1.7,0.4,2.2
				c0.2,0.5,0.6,0.9,1,1.1c0.1,0.1,0.2,0.1,0.4,0.1l-1.2,2.4l0,0.1l0.8,0.5c0.3,0.1,0.6,0,0.7-0.2l1.1-2.5c0.2-0.4,0.3-1.1,0.3-1.8
				c0-1-0.1-1.5-0.4-2.1C-454.5,257.2-455,256.7-455.6,256.3z M-455.3,260.4c-0.1,0.1-0.2,0-0.3,0c-0.2-0.1-0.3-0.2-0.4-0.4
				c-0.1-0.3-0.2-0.7-0.2-1.3c0-0.5,0-1,0.1-1.1c0,0,0.1,0,0.1,0c0.1,0,0.1,0,0.2,0.1c0.2,0.1,0.3,0.2,0.4,0.4
				c0.1,0.3,0.2,0.7,0.2,1.3C-455.1,259.8-455.1,260.3-455.3,260.4z"/>
			<path fill="#001D34" d="M-461,243c-3.7,0-7.3,0.6-10.9,1.9l22.6,12.8c1.4-3.6,2.4-7.3,2.9-11.2C-451.1,244.1-456,243-461,243z"/>
			<path fill="#001D34" d="M-461,274.2c2.3-2.1,4.4-4.4,6.2-6.9l-18.1-10.2C-470.3,263.6-466.3,269.4-461,274.2z"/>
			<path fill="#001D34" d="M-429.2,240c-0.2,0-0.5-0.1-0.7-0.1c-2.1,0-3.9,1.4-4.4,3.5c-1,4.1-3.4,10-8.6,10.1
				c0.8-3.2,1.4-6.5,1.6-10c-6-3.5-12.7-5.4-19.6-5.4c-7,0-13.6,1.9-19.6,5.4c0.2,3.4,0.7,6.8,1.6,10c-5.3-0.2-7.6-6-8.6-10.1
				c-0.5-2.1-2.3-3.5-4.4-3.5c-0.2,0-0.5,0-0.7,0.1c-23.4,3.6-76.2,16.5-76.2,16.5s19.3,11.5,34.6,11.5c1.8,0,3.5-0.2,5.1-0.5
				c0,0,9.5,4.2,26.7,4.2c2.8,0,5.8-0.1,9-0.4c1-0.1,2-0.1,3-0.1c16.2,0,29.6,10.2,29.6,10.2s13.4-10.2,29.6-10.2c1,0,2,0,3,0.1
				c3.2,0.3,6.2,0.4,9,0.4c17.2,0,26.7-4.2,26.7-4.2c1.6,0.3,3.3,0.5,5.1,0.5c15.3,0,34.6-11.5,34.6-11.5S-405.8,243.7-429.2,240z
				 M-432,244c0.2-1,1.1-1.6,2.1-1.6c0.1,0,0.2,0,0.3,0c6.8,1.1,16.2,2.9,26.1,5c-5-0.9-13.3-1.6-19.6,2.4l0,0
				c-1.5,1-2.8,1.8-5.4,0.8l-5.1-2.1C-432.9,247.2-432.4,245.7-432,244z M-439.9,269.7c-1.7,0.4-2.5-0.1-2.8-0.9l-0.4-1.8
				c0.3-0.1,5.2-1,6.6,2.2C-437.5,269.3-439.7,269.6-439.9,269.7z M-445.2,262.6l0.7,3.2c-2.3,0.1-2.8-0.6-2.9-1.1
				c0.4-0.7,0.8-1.5,1.2-2.3C-445.9,262.6-445.6,262.6-445.2,262.6z M-444,262.7c1.4,0.1,2.8,0,4-0.1l1.5,2.8
				C-439,265.6-443.1,266.1-444,262.7L-444,262.7z M-438.7,262.5c1.9-0.3,3.6-0.7,5.1-1.3l3.1,2.8
				C-430.7,264.1-436.5,266.2-438.7,262.5z M-431.4,261.5c-0.3-0.3-0.7-0.6-1-0.8c1.6-0.7,3.1-1.7,4.6-2.7l4.9,2.9
				C-423.5,261.3-428.3,264.2-431.4,261.5z M-423.6,259l-3.1-1.8c1.3-0.9,2.6-1.9,4-2.9l6.7,2.7C-416.6,257.6-420.3,260.4-423.6,259
				z M-417.5,255c-1-0.4-1.8-0.7-2.4-0.9l-1.6-0.7c0.1-0.1,0.2-0.2,0.3-0.2c1.7-1.2,3.5-2,5.5-2.7l6.1,1.8
				C-410.3,253.2-414,256.5-417.5,255z M-434.1,249.7l7.3,3c-2.1,1.7-4.3,3.4-6.9,4.7c-0.8,0.3-1.9,0.4-2.7-0.3c0,0,0,0-0.1-0.1
				l-2.3-2.1C-436.9,253.8-435.3,252.1-434.1,249.7z M-443.2,256c1.2,0,2.2-0.2,3.3-0.6l3.4,3.1c-2,0.6-4.3,1-6.9,0.9
				c-1-0.2-1-1-0.8-1.6l0,0c0.2-0.6,0.4-1.2,0.6-1.8C-443.5,256-443.3,256-443.2,256z M-478.8,256c0.2,0,0.3,0,0.5,0
				c0.2,0.6,0.4,1.2,0.6,1.8l0,0c0.2,0.6,0.2,1.4-0.8,1.6c-2.6,0.1-4.9-0.3-6.9-0.9l3.4-3.1C-481.1,255.8-480,256-478.8,256z
				 M-479.3,268.7c-0.2,0.8-1,1.3-2.8,0.9c-0.2,0-2.4-0.4-3.5-0.5c1.4-3.2,6.3-2.3,6.6-2.2L-479.3,268.7z M-506.1,257.1l6.7-2.7
				c1.4,1,2.7,2,4,2.9l-3.1,1.8C-501.7,260.4-505.4,257.6-506.1,257.1z M-504.5,255c-3.5,1.4-7.1-1.8-8-2.7l6.1-1.8
				c2,0.7,3.8,1.5,5.5,2.7c0.1,0.1,0.2,0.2,0.3,0.2l-1.6,0.7C-502.8,254.3-503.5,254.6-504.5,255z M-494.2,258c1.5,1,3,1.9,4.6,2.7
				c-0.3,0.2-0.6,0.5-1,0.8c-3,2.7-7.9-0.2-8.5-0.6L-494.2,258z M-488.5,261.2c1.5,0.6,3.2,1.1,5.1,1.3c-2.1,3.6-8,1.5-8.2,1.5
				L-488.5,261.2z M-483.6,265.5l1.5-2.8c1.2,0.1,2.6,0.1,4,0.1l0,0.1C-478.9,266.1-483,265.6-483.6,265.5z M-476.8,262.6
				c0.3,0,0.7,0,1.1-0.1c0.4,0.8,0.8,1.5,1.2,2.3c-0.1,0.4-0.7,1.2-2.9,1.1L-476.8,262.6z M-483.3,254.9l-2.3,2.1c0,0,0,0-0.1,0.1
				c-0.8,0.7-1.9,0.6-2.7,0.3c-2.6-1.3-4.8-3-6.9-4.7l7.3-3C-486.7,252.1-485.1,253.8-483.3,254.9z M-492.4,242.4c0.1,0,0.2,0,0.3,0
				c1,0,1.8,0.7,2.1,1.6c0.4,1.7,0.9,3.2,1.6,4.6l-5.1,2.1c-2.6,1-3.8,0.2-5.4-0.8l0,0c-6.2-4.1-14.6-3.4-19.6-2.4
				C-508.6,245.3-499.2,243.5-492.4,242.4z M-562.3,257.4c8.6-2.1,28.3-6.5,28.3-6.5c8.3-1.9,17.7-2.9,25.5-1l-42.5,12.3
				C-555.4,260.7-559.3,258.9-562.3,257.4z M-529.8,265.2c-1.4,0.3-2.9,0.4-4.6,0.4c-4.7,0-9.9-1.2-14.7-2.8l28.7-8.3
				c5.6-1,9.9,2.1,10.6,2.7L-529.8,265.2z M-514.3,260.4c6-2.1,10.9,0.9,11.4,1.3l-6.9,4.1c-1.8,1-6.2,2.8-9.6,2.1
				c-0.2,0-0.4-0.1-0.5-0.1c-3.7-0.7-6.3-1.6-7.5-2L-514.3,260.4z M-506.9,265.5c5.7-3.1,11.7-0.8,12.5-0.5l-2.4,2.2
				c-1.3,1.1-3.1,2-5.8,2.2c-3.7,0-7-0.2-10-0.5L-506.9,265.5z M-493.8,269c-1.2,0.1-2.3,0.2-3.5,0.2l1.3-1.2
				c3.6-3.3,10.3-1.7,10.5-1.7l-0.8,1.5c-0.4,0.6-1,1-2.6,1c-0.1,0-1.2,0-1.7,0C-491.7,268.8-492.7,268.9-493.8,269z M-478.3,269.9
				c0.5-1.9,1.4-2.8,4.1-2.6l0.1,2.1c0,1-0.3,2.4-1.8,1.9c0,0,0,0,0,0c-0.8-0.3-1.6-0.5-2.5-0.7L-478.3,269.9z M-472.9,271.6
				c0-1.1,0.1-2.4,1-2.5c0.7,1.1,1.5,2.1,2.3,3.1c0.8,1,0,1.6-0.7,1.3c0,0,0,0,0,0c-0.8-0.4-1.7-0.7-2.6-1.1L-472.9,271.6z
				 M-461,277.4c-9.9-8.1-16-19.7-17.1-32.4c5.5-2.9,11.2-4.4,17.1-4.4c5.9,0,11.7,1.5,17.1,4.4C-445,257.7-451.1,269.3-461,277.4z
				 M-451.7,273.5c-0.7,0.3-1.4-0.3-0.7-1.3c0.8-1,1.6-2,2.3-3.1c0.9,0.2,1,1.5,1,2.5l0,0.8C-450,272.7-450.9,273.1-451.7,273.5z
				 M-446,271.3C-446,271.3-446,271.3-446,271.3c-1.5,0.5-1.8-0.9-1.8-1.9l0.1-2.1c2.7-0.2,3.6,0.7,4.1,2.6l0.1,0.6
				C-444.4,270.8-445.2,271-446,271.3z M-428.2,269c-1-0.1-2.1-0.1-3.2-0.1c-0.5,0-1.6,0-1.7,0c-1.6,0-2.2-0.4-2.6-1l-0.8-1.5
				c0.2-0.1,6.9-1.6,10.5,1.7l1.3,1.2C-425.9,269.1-427.1,269.1-428.2,269z M-419.4,269.3c-2.7-0.1-4.5-1.1-5.8-2.2l-2.4-2.2
				c0.8-0.3,6.8-2.6,12.5,0.5l5.7,3.4C-412.4,269.1-415.7,269.3-419.4,269.3z M-402.2,267.7c-0.1,0-0.3,0.1-0.5,0.1
				c-3.3,0.7-7.7-1-9.6-2.1l-6.9-4.1c0.6-0.4,5.5-3.4,11.4-1.3l13.1,5.3C-395.9,266.2-398.4,267-402.2,267.7z M-387.6,265.7
				c-1.7,0-3.2-0.1-4.6-0.4l-20-8c0.7-0.6,4.9-3.7,10.6-2.7l28.7,8.3C-377.8,264.5-382.9,265.7-387.6,265.7z M-413.4,249.9
				c7.7-1.9,17.1-0.9,25.5,1c0,0,19.7,4.5,28.3,6.5c-3,1.5-6.9,3.3-11.2,4.8L-413.4,249.9z"/>
		</g>
		<g>
			<path fill="#001D34" d="M-523.2,359h1.2l-2.9,8.4c-0.6,1.7-1.3,2.3-2.4,2.3c-0.5,0-1-0.1-1.5-0.4l0.3-0.9
				c0.3,0.2,0.7,0.3,1.1,0.3c0.6,0,1-0.3,1.4-1.4l-3.2-8.2h1.2l2.5,6.8L-523.2,359z"/>
			<path fill="#001D34" d="M-514.7,363.2L-514.7,363.2c0-1.9-1.1-3.3-2.5-3.3c-1.5,0-2.5,1.4-2.5,3.2v0.1c0,1.8,1.1,3.2,2.5,3.2
				C-515.8,366.4-514.7,365-514.7,363.2 M-520.9,363.2v-0.1c0-2.4,1.5-4.2,3.7-4.2c2.1,0,3.6,1.8,3.6,4.2v0.1c0,2.4-1.5,4.2-3.7,4.2
				C-519.4,367.4-520.9,365.6-520.9,363.2"/>
			<path fill="#001D34" d="M-511.5,364.4V359h1.1v5.1c0,1.5,0.7,2.3,1.9,2.3s2.1-0.9,2.1-2.3v-5h1.1v8.2h-1.1v-1.3
				c-0.5,0.8-1.2,1.5-2.4,1.5C-510.5,367.4-511.5,366.2-511.5,364.4"/>
			<path fill="#001D34" d="M-502.6,359h1.1v1.8c0.5-1.2,1.5-2,2.8-1.9v1.2h-0.1c-1.5,0-2.8,1.1-2.8,3.2v3.9h-1.1V359z"/>
			<path fill="#001D34" d="M-491.9,360h-1v-1h1v-0.8c0-0.9,0.2-1.5,0.6-1.9c0.4-0.4,0.9-0.6,1.6-0.6c0.4,0,0.8,0.1,1.1,0.2v1
				c-0.3-0.1-0.6-0.2-0.9-0.2c-0.8,0-1.2,0.5-1.2,1.5v0.7h2.1v1h-2.1v7.2h-1.2V360z"/>
			<path fill="#001D34" d="M-486.9,359h1.1v1.8c0.5-1.2,1.5-2,2.8-1.9v1.2h-0.1c-1.5,0-2.8,1.1-2.8,3.2v3.9h-1.1V359z"/>
			<path fill="#001D34" d="M-476.3,362.7c-0.1-1.6-0.8-2.8-2.2-2.8c-1.2,0-2.1,1.1-2.2,2.8H-476.3z M-481.8,363.2L-481.8,363.2
				c0-2.6,1.5-4.3,3.4-4.3c2.1,0,3.3,1.8,3.3,4.2c0,0.1,0,0.3,0,0.5h-5.5c0.1,1.8,1.2,2.8,2.5,2.8c0.9,0,1.6-0.4,2.1-0.9l0.6,0.7
				c-0.7,0.8-1.6,1.2-2.8,1.2C-480.2,367.4-481.8,365.8-481.8,363.2"/>
			<path fill="#001D34" d="M-467.9,362.7c-0.1-1.6-0.8-2.8-2.2-2.8c-1.2,0-2.1,1.1-2.2,2.8H-467.9z M-473.4,363.2L-473.4,363.2
				c0-2.6,1.5-4.3,3.4-4.3c2.1,0,3.3,1.8,3.3,4.2c0,0.1,0,0.3,0,0.5h-5.5c0.1,1.8,1.2,2.8,2.5,2.8c0.9,0,1.6-0.4,2.1-0.9l0.6,0.7
				c-0.7,0.8-1.6,1.2-2.8,1.2C-471.8,367.4-473.4,365.8-473.4,363.2"/>
			<path fill="#001D34" d="M-459,363.2V363c0-1.9-1.2-3.2-2.5-3.2c-1.3,0-2.4,1.2-2.4,3.2v0.1c0,2,1.1,3.2,2.4,3.2
				C-460.2,366.4-459,365.1-459,363.2 M-465,363.2V363c0-2.7,1.6-4.2,3.3-4.2c1.3,0,2.1,0.8,2.7,1.7v-4.7h1.1v11.4h-1.1v-1.6
				c-0.6,0.9-1.4,1.7-2.7,1.7C-463.4,367.4-465,365.9-465,363.2"/>
			<path fill="#001D34" d="M-449.5,363.2L-449.5,363.2c0-1.9-1.1-3.3-2.5-3.3c-1.5,0-2.5,1.4-2.5,3.2v0.1c0,1.8,1.1,3.2,2.5,3.2
				C-450.6,366.4-449.5,365-449.5,363.2 M-455.7,363.2v-0.1c0-2.4,1.5-4.2,3.7-4.2c2.1,0,3.6,1.8,3.6,4.2v0.1c0,2.4-1.5,4.2-3.7,4.2
				C-454.2,367.4-455.7,365.6-455.7,363.2"/>
			<path fill="#001D34" d="M-446.2,359h1.1v1.3c0.5-0.8,1.1-1.5,2.3-1.5c1.1,0,1.9,0.6,2.3,1.5c0.5-0.8,1.3-1.5,2.5-1.5
				c1.6,0,2.6,1.1,2.6,3v5.4h-1.1v-5.1c0-1.5-0.7-2.3-1.8-2.3c-1.1,0-1.9,0.9-1.9,2.3v5h-1.1v-5.1c0-1.5-0.7-2.3-1.8-2.3
				c-1.1,0-1.9,1-1.9,2.4v5h-1.1V359z"/>
			<path fill="#001D34" d="M-427.9,365.3V360h-1v-1h1v-2.4h1.1v2.4h2.1v1h-2.1v5.1c0,0.9,0.5,1.2,1.2,1.2c0.3,0,0.6-0.1,1-0.2v1
				c-0.4,0.2-0.8,0.3-1.2,0.3C-427.1,367.3-427.9,366.8-427.9,365.3"/>
			<path fill="#001D34" d="M-417,363.2L-417,363.2c0-1.9-1.1-3.3-2.5-3.3c-1.5,0-2.5,1.4-2.5,3.2v0.1c0,1.8,1.1,3.2,2.5,3.2
				C-418,366.4-417,365-417,363.2 M-423.2,363.2v-0.1c0-2.4,1.5-4.2,3.7-4.2c2.1,0,3.6,1.8,3.6,4.2v0.1c0,2.4-1.5,4.2-3.7,4.2
				C-421.6,367.4-423.2,365.6-423.2,363.2"/>
			<path fill="#00AAE7" d="M-402.2,355.8h1.2l-2.8,11.4h-1.2L-402.2,355.8z M-408.1,360h-1l0.3-1h1l0.2-0.9c0.2-0.8,0.4-1.3,0.9-1.7
				c0.4-0.4,1-0.6,1.7-0.6c0.5,0,1,0.1,1.3,0.3l-0.3,1c-0.4-0.2-0.7-0.2-1-0.2c-0.7,0-1.2,0.4-1.4,1.4l-0.2,0.8h2.2l-0.3,1h-2.1
				l-1.8,7.2h-1.2L-408.1,360z"/>
			<path fill="#00AAE7" d="M-399.9,359h1.2l0.8,6.8l3.8-6.8h1.3l-4.9,8.4c-1,1.6-1.8,2.2-2.8,2.2c-0.6,0-1.1-0.2-1.6-0.6l0.6-0.9
				c0.3,0.2,0.7,0.4,1,0.4c0.6,0,1-0.3,1.7-1.4L-399.9,359z"/>
		</g>
		<g>
			<path fill="#001D34" d="M-540.6,289.6l-24.1,55.2h10.7l5.5-13h24.8l5.5,13h11.1l-23.2-53.1c-0.5-1.2-1.8-2-3.1-2H-540.6z
				 M-527.4,322.4h-17.1l8.5-19.8L-527.4,322.4z"/>
			<path fill="#001D34" d="M-482.4,289c-16.1,0-28.7,12.4-28.7,28.3v0.2c0,16.1,12.3,28.2,28.5,28.2c16.1,0,28.7-12.4,28.7-28.3
				v-0.2C-453.8,301.2-466.1,289-482.4,289z M-500.2,317.2c0-10.6,7.6-18.5,17.7-18.5c10.2,0,17.8,8,17.8,18.7v0.2
				c0,10.5-7.6,18.4-17.7,18.4c-10.2,0-17.8-8-17.8-18.6V317.2z"/>
			<path fill="#001D34" d="M-406.3,308.2v-0.2c0-11.2-8.2-18.5-20.9-18.5h-21.7v55.2h7c1.9,0,3.4-1.5,3.4-3.4v-14.3h10.2
				C-414.9,327.1-406.3,319.7-406.3,308.2z M-416.9,308.3v0.2c0,5.5-4.5,9.1-11.1,9.1h-10.5v-18.4h10.5
				C-420.9,299.2-416.9,302.5-416.9,308.3z"/>
			<path fill="#001D34" d="M-383.7,289.6h-7.2l-24.1,55.2h10.7l5.5-13h24.8l5.5,13h11.1l-23.2-53.1
				C-381.1,290.4-382.3,289.6-383.7,289.6z M-377.7,322.4h-17.1l8.5-19.8L-377.7,322.4z"/>
		</g>
	</g>
	<g>
		<path fill="#001D34" d="M-374.6,293.4L-374.6,293.4c0-2.2,1.8-4,4-4c2.2,0,4,1.8,4,4v0c0,2.2-1.8,4-4,4
			C-372.9,297.4-374.6,295.6-374.6,293.4z M-367.1,293.4L-367.1,293.4c0-2-1.5-3.6-3.5-3.6c-2,0-3.5,1.6-3.5,3.6v0
			c0,1.9,1.5,3.5,3.5,3.5C-368.7,297-367.1,295.3-367.1,293.4z M-372.2,291.3h1.8c0.9,0,1.6,0.4,1.6,1.3c0,0.7-0.4,1.1-0.9,1.2
			l1.1,1.5h-0.9l-1-1.4h-0.8v1.4h-0.8V291.3z M-370.4,293.3c0.5,0,0.8-0.3,0.8-0.7c0-0.4-0.3-0.7-0.8-0.7h-1v1.3H-370.4z"/>
	</g>
</g>
</symbol><symbol id="maintenance" viewBox="0 0 10.72 8.59">
<g>
	<g>
		
		<clipPath id="SVGID_2_">
			<use overflow="visible"/>

		</clipPath>
		<path clip-path="url(#SVGID_2_)" d="M9.45,2.14C9.44,2.07,9.39,2,9.32,1.98c-0.07-0.03-0.15-0.01-0.2,0.04L8.05,3.1L6.86,2.72
			L6.49,1.53l1.07-1.07c0.05-0.05,0.07-0.13,0.04-0.2C7.58,0.19,7.51,0.14,7.44,0.13C6.79,0.08,6.15,0.31,5.69,0.77
			c-0.63,0.63-0.8,1.55-0.5,2.34C5.15,3.14,5.12,3.17,5.09,3.2L1.51,6.58c0,0,0,0,0,0C1.09,7,1.09,7.69,1.51,8.11
			c0.42,0.42,1.1,0.42,1.52-0.01c0,0,0,0,0.01-0.01l3.35-3.61c0.03-0.03,0.06-0.06,0.09-0.1c0.79,0.3,1.71,0.13,2.34-0.5
			C9.27,3.43,9.5,2.79,9.45,2.14L9.45,2.14z M2.49,7.65c-0.16,0.16-0.41,0.16-0.56,0c-0.15-0.16-0.15-0.41,0-0.56
			c0.16-0.15,0.41-0.15,0.56,0C2.64,7.25,2.64,7.5,2.49,7.65L2.49,7.65z M2.49,7.65"/>
	</g>
</g>
</symbol><symbol id="map-pin" viewBox="0 0 10.723 8.594">
<g>
	<path d="M8.018,3.87L6,8.163C5.883,8.407,5.627,8.557,5.361,8.557c-0.266,0-0.522-0.15-0.632-0.394L2.705,3.87
		C2.56,3.565,2.521,3.215,2.521,2.877c0-1.57,1.271-2.84,2.84-2.84s2.84,1.27,2.84,2.84C8.201,3.215,8.162,3.565,8.018,3.87z
		 M5.361,1.457c-0.781,0-1.42,0.638-1.42,1.42s0.639,1.42,1.42,1.42s1.42-0.638,1.42-1.42S6.143,1.457,5.361,1.457z"/>
</g>
</symbol><symbol id="map" viewBox="0 0 10.723 8.594">
<g>
	<path fill="none" d="M6.689,5.422L5.346,2.573C5.25,2.37,5.224,2.138,5.224,1.914c0-0.234,0.048-0.456,0.126-0.663L4.329,0.843
		v5.643l2.561,1.022V5.626C6.803,5.581,6.73,5.512,6.689,5.422z"/>
	<path fill="none" d="M6.889,2.827V1.865L6.225,1.599C6.189,1.698,6.167,1.803,6.167,1.914C6.167,2.357,6.476,2.728,6.889,2.827z"/>
	<path fill="none" d="M7.567,1.096C7.43,1.019,7.276,0.971,7.109,0.971c-0.194,0-0.374,0.059-0.524,0.16L7.031,1.31L7.567,1.096z"/>
	<path fill="none" d="M8.872,2.573L7.533,5.422c-0.068,0.142-0.208,0.232-0.36,0.252v1.834L9.59,6.544V0.901L8.85,1.196
		c0.091,0.221,0.143,0.463,0.143,0.718C8.993,2.138,8.968,2.37,8.872,2.573z"/>
	<path fill="none" d="M7.172,2.85c0.489-0.033,0.879-0.439,0.879-0.936c0-0.131-0.027-0.256-0.076-0.369l-0.803,0.32V2.85z"/>
	<polygon fill="none" points="1.112,7.816 3.692,6.786 3.692,0.763 1.112,1.792 	"/>
	<path d="M10.085,0.122c-0.084-0.057-0.19-0.067-0.284-0.028L8.494,0.616c0.133,0.157,0.247,0.33,0.327,0.524l0.79-0.315v6.024
		L7.03,7.877V5.92C7.008,5.923,6.985,5.929,6.962,5.929c-0.083,0-0.162-0.024-0.234-0.061v2.009L3.995,6.786V0.763l1.09,0.435
		c0.073-0.195,0.177-0.372,0.304-0.532L3.957,0.094c-0.076-0.033-0.151-0.033-0.227,0L0.694,1.308
		c-0.114,0.043-0.19,0.157-0.19,0.28v6.678c0,0.1,0.053,0.195,0.133,0.252C0.689,8.551,0.747,8.57,0.808,8.57
		c0.038,0,0.076-0.005,0.114-0.024l2.922-1.167l2.922,1.167c0.076,0.033,0.151,0.033,0.227,0l3.036-1.214
		c0.114-0.043,0.19-0.157,0.19-0.28V0.374C10.218,0.274,10.166,0.179,10.085,0.122z M3.692,6.786L1.112,7.816V1.792l2.581-1.029
		V6.786z"/>
	<g>
		<path fill="none" d="M7.418,1.222C7.286,1.148,7.136,1.102,6.974,1.102c-0.188,0-0.363,0.057-0.509,0.155
			c-0.161,0.109-0.283,0.268-0.35,0.454C6.081,1.807,6.059,1.909,6.059,2.017c0,0.43,0.301,0.79,0.702,0.887
			C6.829,2.92,6.9,2.932,6.974,2.932c0.021,0,0.041-0.005,0.062-0.006C7.51,2.893,7.889,2.499,7.889,2.017
			c0-0.127-0.026-0.248-0.074-0.358C7.735,1.472,7.593,1.321,7.418,1.222z"/>
		<path d="M8.665,1.319C8.592,1.144,8.488,0.986,8.367,0.843C8.032,0.445,7.536,0.187,6.974,0.187c-0.583,0-1.096,0.277-1.431,0.702
			C5.427,1.034,5.333,1.196,5.266,1.373C5.19,1.574,5.144,1.789,5.144,2.017c0,0.218,0.025,0.443,0.118,0.64l1.305,2.766
			c0.04,0.088,0.111,0.154,0.194,0.198c0.065,0.034,0.138,0.056,0.213,0.056c0.021,0,0.041-0.006,0.062-0.009
			c0.148-0.02,0.284-0.107,0.35-0.245l1.3-2.766c0.093-0.196,0.118-0.422,0.118-0.64C8.804,1.769,8.753,1.534,8.665,1.319z
			 M7.035,2.925C7.015,2.927,6.995,2.932,6.974,2.932C6.9,2.932,6.829,2.92,6.76,2.904C6.36,2.807,6.059,2.447,6.059,2.017
			c0-0.107,0.022-0.209,0.056-0.305c0.067-0.186,0.188-0.346,0.35-0.454c0.146-0.098,0.321-0.155,0.509-0.155
			c0.162,0,0.312,0.046,0.444,0.121c0.175,0.099,0.317,0.25,0.397,0.436c0.047,0.11,0.074,0.231,0.074,0.358
			C7.889,2.499,7.51,2.893,7.035,2.925z"/>
	</g>
</g>
</symbol><symbol id="member" viewBox="0 0 512 512">
<path id="id-card-8-icon" d="M216.5,50v139h79V50H216.5z M256,134.833c-8.468,0-15.332-6.865-15.332-15.333
	s6.864-15.333,15.332-15.333c8.469,0,15.334,6.865,15.334,15.333S264.469,134.833,256,134.833z M462,149v313H50V149h136.5v40H90v233
	h332V189h-96.5v-40H462z M383,328.166h-98.666v-30H383V328.166z M318.334,384.831v-30H383v30H318.334z M180.922,322.116
	c-28.799-53.038-8.211-83.108,22.717-83.108c30.328,0,51.438,28.959,22.715,83.108c-9.435,17.788,10.049,22.015,30.979,26.845
	c20.921,4.824,19.312,15.854,19.312,35.87H130.631c0-20.016-1.609-31.046,19.312-35.87
	C170.426,344.235,190.641,340.013,180.922,322.116z M383,271.5h-98.666v-30H383V271.5z"/>
</symbol><symbol id="membership" viewBox="0 160 512 206">
<path id="user-14-icon" d="M461.968,359.358h-79.937c-0.004-86.998-43.49-45.648-43.49-121.885c0-27.52,18.017-42.455,41.15-42.455
	c34.181,0,57.969,32.635,25.601,93.66c-10.634,20.049,11.323,24.812,34.912,30.254C463.782,324.37,461.968,336.802,461.968,359.358z
	 M71.796,318.933c23.589-5.441,45.546-10.205,34.912-30.254c-32.368-61.025-8.58-93.66,25.601-93.66
	c23.134,0,41.15,14.936,41.15,42.455c0,76.236-43.486,34.887-43.49,121.885H50.032C50.032,336.802,48.218,324.37,71.796,318.933z
	 M332.115,308.509c-29.67-6.846-57.289-12.838-43.913-38.055c40.715-76.762,10.792-117.812-32.202-117.812
	c-43.842,0-73.027,42.625-32.201,117.812c13.776,25.371-14.883,31.357-43.915,38.055c-29.658,6.84-27.377,22.477-27.377,50.85
	h206.985C359.492,330.985,361.774,315.349,332.115,308.509z"/>
</symbol><symbol id="money" viewBox="0 0 10.723 8.594">
<g>
	<path d="M10.694,7.497c0,0.195-0.161,0.356-0.356,0.356H0.384c-0.195,0-0.356-0.161-0.356-0.356v-6.4
		c0-0.195,0.161-0.356,0.356-0.356h9.955c0.195,0,0.356,0.161,0.356,0.356V7.497z M9.983,2.875c-0.783,0-1.422-0.639-1.422-1.422
		h-6.4c0,0.783-0.64,1.422-1.422,1.422v2.844c0.783,0,1.422,0.639,1.422,1.422h6.4c0-0.783,0.64-1.422,1.422-1.422V2.875z
		 M5.361,6.608c-1.167,0-1.778-1.3-1.778-2.311s0.61-2.311,1.778-2.311s1.778,1.3,1.778,2.311S6.529,6.608,5.361,6.608z
		 M6.428,5.719V5.186H5.717V2.697H5.084L4.261,3.458l0.429,0.444c0.133-0.117,0.216-0.178,0.305-0.317h0.011v1.6H4.295v0.533H6.428z
		"/>
</g>
</symbol><symbol id="mug" viewBox="0 0 9.814 8.637">
<g>
	<path d="M9.814,8.637H2.748V7.459l0.785-1.178c-0.067,0-0.718,0-0.785,0c-1.301,0-2.355-1.055-2.355-2.355V1.963L0,1.57
		l0.196-0.785h2.944L3.337,0h5.889l0.196,1.178L9.029,1.374v4.907l0.785,1.178V8.637z M3.533,2.355h-1.57c0,0.785,0,1.57,0,1.57
		c0,0.436,0.35,0.785,0.785,0.785c0.473,0,0.693,0,0.785,0V2.355z"/>
</g>
</symbol><symbol id="negotiate" viewBox="0 0 10.7 8.6">
<path fill-rule="evenodd" clip-rule="evenodd" d="M1.1,0.8L1.7,1L0.6,5.1L0,4.9L1.1,0.8L1.1,0.8z M5.9,4.1l2.2,1.7
	c0.3,0.3,0.8-0.3,0.4-0.6c0,0-0.1-0.1-0.2-0.2C8.1,4.9,7.9,4.7,7.6,4.4C7,3.8,6.6,3.3,5.9,2.8C5.3,2.2,4.9,2.7,4.9,2.7
	C4.8,3.1,4.1,4.4,3.3,3.5c0.3-0.8,0.3-1.1,0.5-1.6c0.1-0.2,0.7-0.5,1.1-0.6C5.3,1,5.7,1,6,1.1c0.7,0.2,1.1,0.2,1.9,0.3
	c0.2,0,0.4,0,0.5,0l0.9,3.3L8.9,5c0.4,0.5,0,1.2-0.6,1.3C8.3,6.7,7.9,7,7.5,7c0,0.2-0.2,0.4-0.4,0.5C6.9,7.6,6.7,7.6,6.4,7.4
	C6.1,7.8,5.6,7.7,5.2,7.6C4.9,7.8,4.3,8,4.1,7.4c-0.3,0.3-1,0-0.9-0.5C2.9,7.2,2.4,6.8,2.5,6.4c0.1-0.3,0.4-0.7,0.7-0.8
	c0.3,0,0.6,0.2,0.6,0.5C4,5.9,4.5,6.2,4.5,6.6C4.7,6.6,4.9,6.7,5,7c0.2,0.2,0.9,0.5,1,0.2L4.8,6.3l0.6-0.1l1,0.7C7,7.4,7.3,7,7,6.8
	L5.3,5.5l0.6-0.1l1.5,1.1c0.4,0.3,0.8-0.1,0.5-0.4L6.3,4.9L5.9,4.1L5.9,4.1z M1.8,5.3L1.3,5l0.1-0.4l1.1,0.8C2.4,5.5,2.3,5.8,2.2,6
	C1.9,6,1.5,5.7,1.8,5.3L1.8,5.3z M9.6,0.8L9,1l1.1,4.1l0.6-0.2L9.6,0.8L9.6,0.8z M2.3,1.2h1.9L3.3,1.6H2.2L2.3,1.2L2.3,1.2z"/>
</symbol><symbol id="newspaper" viewBox="0 0 10.723 8.594">
<g>
	<path d="M10.633,6.97c0,0.547-0.443,0.991-0.991,0.991H1.055c-0.547,0-0.991-0.444-0.991-0.991V1.355h1.321V0.694h9.248V6.97z
		 M1.385,2.016H0.724V6.97c0,0.181,0.149,0.33,0.33,0.33s0.33-0.149,0.33-0.33V2.016z M9.973,1.355H2.046V6.97
		c0,0.114-0.021,0.227-0.057,0.33h7.654c0.181,0,0.33-0.149,0.33-0.33V1.355z M6.009,5.318H2.706V2.016h3.303V5.318z M6.009,6.64
		H2.706V5.979h3.303V6.64z M3.367,2.676v1.982h1.982V2.676H3.367z M9.312,2.676H6.67V2.016h2.642V2.676z M9.312,3.997H6.67V3.337
		h2.642V3.997z M9.312,5.318H6.67V4.658h2.642V5.318z M9.312,6.64H6.67V5.979h2.642V6.64z"/>
</g>
</symbol><symbol id="notebook" viewBox="0 0 10.723 8.594">
<g>
	<path d="M9.65,1.805C9.638,2.272,9.498,2.409,9.498,2.409L8.014,7.191c-0.22,0.715-0.824,0.769-0.824,0.769H1.968
		C1.198,7.713,1.473,7.191,1.473,7.191H6.42c0.879,0,1.127-0.934,1.127-0.934L9.168,1.09c0.247-0.742-0.55-1.072-0.55-1.072H3.174
		C3.119,0.843,2.655,1.255,2.655,1.255C2.597,2.492,2.023,2.904,2.023,2.904C2.102,3.987,1.5,4.608,1.5,4.608
		c0.08,1.193-0.525,1.594-0.525,1.594c0.03,0.77-0.357,1.056-0.357,1.056C0.939,8.412,1.94,8.594,1.94,8.594l5.524-0.001
		C8.261,8.62,8.591,7.961,8.591,7.961l1.478-5.057C10.255,2.107,9.65,1.805,9.65,1.805z M4.345,1.064L7.42,1.074
		c0.218,0.001,0.395,0.179,0.395,0.397C7.813,1.688,7.635,1.866,7.417,1.865L4.343,1.856C4.125,1.855,3.947,1.676,3.948,1.459
		C3.949,1.241,4.127,1.064,4.345,1.064z M3.986,2.328l3.075,0.009c0.218,0.001,0.395,0.179,0.395,0.397
		C7.455,2.952,7.276,3.13,7.058,3.129L3.984,3.12C3.766,3.119,3.589,2.941,3.589,2.723C3.59,2.505,3.769,2.328,3.986,2.328z"/>
</g>
</symbol><symbol id="pamphlet" viewBox="0 0 10.992 10.992">
<g>
	<path d="M3.337,0.196v9.029c0,0.074-0.043,0.141-0.104,0.172l-2.944,1.57c-0.03,0.018-0.062,0.024-0.092,0.024
		C0.092,10.992,0,10.9,0,10.796V1.767c0-0.074,0.043-0.141,0.104-0.172l2.944-1.57C3.079,0.006,3.11,0,3.141,0
		C3.245,0,3.337,0.092,3.337,0.196z M4.012,0.019l3.141,1.57c0.067,0.037,0.11,0.104,0.11,0.178v9.029
		c0,0.104-0.092,0.196-0.196,0.196c-0.03,0-0.062-0.006-0.086-0.019L3.84,9.403c-0.067-0.037-0.11-0.104-0.11-0.178V0.196
		C3.729,0.092,3.821,0,3.926,0C3.956,0,3.987,0.006,4.012,0.019z M10.992,0.196v9.029c0,0.074-0.043,0.141-0.104,0.172l-2.944,1.57
		c-0.03,0.018-0.062,0.024-0.092,0.024c-0.104,0-0.196-0.092-0.196-0.196V1.767c0-0.074,0.043-0.141,0.104-0.172l2.944-1.57
		C10.734,0.006,10.766,0,10.796,0C10.9,0,10.992,0.092,10.992,0.196z"/>
</g>
</symbol><symbol id="pdf-document" viewBox="0 0 10.289 12.004">
<g>
	<path d="M10.289,3.644v7.717c0,0.355-0.288,0.643-0.644,0.643H0.643C0.288,12.004,0,11.716,0,11.361V0.643C0,0.288,0.288,0,0.643,0
		h6.002C7,0,7.495,0.208,7.743,0.456l2.09,2.09C10.081,2.793,10.289,3.289,10.289,3.644z M9.432,4.287H6.645
		c-0.354,0-0.643-0.288-0.643-0.643V0.857H0.857v10.289h8.574V4.287z M6.551,7.549c0.281-0.034,0.543-0.047,0.784-0.047
		c0.448,0,1.018,0.054,1.186,0.328c0.047,0.067,0.087,0.188,0.014,0.349c-0.007,0.006-0.014,0.02-0.021,0.026v0.007
		c-0.021,0.121-0.12,0.255-0.476,0.255c-0.429,0-1.078-0.194-1.642-0.489C5.466,8.079,4.488,8.286,3.771,8.534
		c-0.69,1.179-1.22,1.755-1.621,1.755c-0.067,0-0.128-0.013-0.188-0.047l-0.161-0.081c-0.021-0.006-0.027-0.02-0.04-0.033
		c-0.034-0.034-0.061-0.107-0.04-0.241C1.788,9.579,2.15,9.063,2.98,8.628c0.054-0.034,0.121-0.014,0.154,0.04
		c0.007,0.007,0.014,0.02,0.014,0.027c0.207-0.342,0.448-0.777,0.717-1.32C4.166,6.772,4.4,6.183,4.562,5.62
		C4.347,4.89,4.28,4.14,4.4,3.698C4.447,3.53,4.548,3.43,4.682,3.43h0.141h0.007c0.101,0,0.182,0.034,0.234,0.101
		c0.081,0.094,0.101,0.241,0.061,0.456c-0.007,0.02-0.014,0.04-0.026,0.053C5.104,4.06,5.104,4.073,5.104,4.093
		c0,0.067,0,0.134,0,0.201C5.098,4.716,5.091,5.118,5.011,5.58c0.234,0.703,0.582,1.272,0.978,1.594
		C6.156,7.308,6.344,7.429,6.551,7.549z M3.048,8.869C2.545,9.257,2.23,9.7,2.13,9.927C2.331,9.833,2.619,9.545,3.048,8.869z
		 M5.868,7.65C5.801,7.596,5.733,7.549,5.674,7.496c-0.328-0.288-0.623-0.69-0.852-1.179C4.695,6.726,4.508,7.161,4.267,7.636
		C4.166,7.824,4.065,8.012,3.965,8.192C4.555,7.958,5.211,7.771,5.868,7.65z M4.782,4.649c0.021-0.107,0.034-0.208,0.047-0.295
		C4.843,4.24,4.863,4.146,4.876,4.066c0.007-0.02,0.014-0.033,0.027-0.053C4.896,4.006,4.896,3.992,4.89,3.979
		C4.883,3.858,4.843,3.785,4.803,3.738c0,0.014-0.007,0.02-0.007,0.027C4.729,3.952,4.729,4.274,4.782,4.649z M6.859,3.43h2.519
		C9.338,3.316,9.277,3.202,9.23,3.155L7.134,1.059C7.087,1.012,6.973,0.951,6.859,0.911V3.43z M7.354,7.924
		c0.328,0.121,0.63,0.188,0.831,0.188c0.061,0,0.094,0,0.12-0.006c0-0.007-0.006-0.014-0.013-0.02
		C8.259,8.052,8.085,7.924,7.354,7.924z"/>
</g>
</symbol><symbol id="pen" viewBox="0 0 10.7 8.6">
<g>
	<path d="M9.3,1.1l-1-0.9C8.1,0,7.8,0,7.7,0.2L7.2,0.7l1.6,1.5l0.5-0.5C9.4,1.5,9.4,1.3,9.3,1.1z"/>
	<polygon points="2.5,5.8 4.1,7.3 8.5,2.5 6.9,1 	"/>
	<polygon points="1.8,7.4 2.5,8.1 3.8,7.5 2.2,6 	"/>
	<path d="M1.5,8.3C1.5,8.4,1.5,8.4,1.5,8.3c0.1,0.1,0.7-0.1,0.7-0.1L1.7,7.7C1.7,7.7,1.5,8.2,1.5,8.3z"/>
</g>
</symbol><symbol id="pie-chart" viewBox="0 0 10.723 8.594">
<g>
	<path d="M7.653,7.374C6.946,8.092,5.958,8.535,4.872,8.535c-2.16,0-3.912-1.752-3.912-3.912s1.752-3.912,3.912-3.912v3.882
		L7.653,7.374z M5.524,3.971V0.059c2.16,0,3.912,1.752,3.912,3.912H5.524z M9.763,4.623c0,1.085-0.444,2.073-1.161,2.782
		L5.825,4.623H9.763z"/>
</g>
</symbol><symbol id="play" viewBox="0 0 512 512">
<path fill="#ffffff" id="video-play-3-icon" d="M256,92.481c44.433,0,86.18,17.068,117.553,48.064C404.794,171.411,422,212.413,422,255.999
	s-17.206,84.588-48.448,115.455c-31.372,30.994-73.12,48.064-117.552,48.064s-86.179-17.07-117.552-48.064
	C107.206,340.587,90,299.585,90,255.999s17.206-84.588,48.448-115.453C169.821,109.55,211.568,92.481,256,92.481 M256,52.481
	c-113.771,0-206,91.117-206,203.518c0,112.398,92.229,203.52,206,203.52c113.772,0,206-91.121,206-203.52
	C462,143.599,369.772,52.481,256,52.481L256,52.481z M206.544,357.161V159.833l160.919,98.666L206.544,357.161z"/>
</symbol><symbol id="print" viewBox="-371 208 216 146">
<path d="M-199.8,275.2c-3.1-3.1-6.8-4.6-11-4.6h-5.2v-20.9c0-2.2-0.5-4.6-1.6-7.2c-1.1-2.6-2.4-4.7-3.9-6.2L-234,224
	c-1.5-1.5-3.6-2.8-6.2-3.9c-2.6-1.1-5-1.6-7.2-1.6h-54.8c-2.2,0-4,0.8-5.5,2.3c-1.5,1.5-2.3,3.4-2.3,5.5v44.3h-5.2
	c-4.3,0-8,1.5-11,4.6c-3.1,3.1-4.6,6.7-4.6,11v33.9c0,0.7,0.3,1.3,0.8,1.8c0.5,0.5,1.1,0.8,1.8,0.8h18.2v13c0,2.2,0.8,4,2.3,5.5
	s3.4,2.3,5.5,2.3h78.2c2.2,0,4-0.8,5.5-2.3c1.5-1.5,2.3-3.4,2.3-5.5v-13h18.2c0.7,0,1.3-0.3,1.8-0.8c0.5-0.5,0.8-1.1,0.8-1.8v-33.9
	C-195.2,281.9-196.7,278.2-199.8,275.2z M-226.5,333.1h-73v-20.9h73V333.1z M-226.5,281h-73v-52.1h52.1v13c0,2.2,0.8,4,2.3,5.5
	c1.5,1.5,3.4,2.3,5.5,2.3h13V281z M-207.2,289.9c-1,1-2.3,1.5-3.7,1.5s-2.6-0.5-3.7-1.5c-1-1-1.5-2.3-1.5-3.7c0-1.4,0.5-2.6,1.5-3.7
	c1-1,2.3-1.5,3.7-1.5s2.6,0.5,3.7,1.5c1,1,1.5,2.3,1.5,3.7C-205.6,287.6-206.2,288.9-207.2,289.9z"/>
</symbol><symbol id="quote" viewBox="-223 25 512 512">
<path d="M61.9,419.9h131.9v-131H141c-4.3-45.1,19.6-79.1,80-87.6L210.8,151c-96.1,5.1-148.9,53.6-148.9,159.1V419.9z M-138,419.9
	H-6.1v-131h-52.7c-4.3-45.1,19.6-79.1,80-87.6L10,151c-95.3,5.1-148,53.6-148,159.1V419.9z"/>
</symbol><symbol id="rightarrow-thin" viewBox="-371 208 216 146">
<g>
	<g>
		<path d="M-265.8,273.5l-0.7,0.7l7.3,7.2l0.7-0.7L-265.8,273.5z M-259.5,281.4l-0.7-0.7l-6.2,6.1l0.7,0.7L-259.5,281.4z"/>
	</g>
</g>
</symbol><symbol id="rightarrow" viewBox="-305 238 98 49">
<path transform="rotate(-90 -266 270)" d="M-222.3,264.1c0-0.7-0.3-1.3-0.8-1.9l-4.1-4.1c-0.5-0.5-1.2-0.8-1.9-0.8c-0.7,0-1.3,0.3-1.9,0.8l-32,32l-32-32
	c-0.5-0.5-1.2-0.8-1.9-0.8s-1.3,0.3-1.9,0.8l-4.1,4.1c-0.5,0.5-0.8,1.2-0.8,1.9s0.3,1.3,0.8,1.9l38,38c0.5,0.5,1.2,0.8,1.9,0.8
	s1.3-0.3,1.9-0.8l38-38C-222.6,265.4-222.3,264.8-222.3,264.1z"/>
</symbol><symbol id="righttriangle" viewBox="-272 238 68 48">
<path transform="rotate(-90 -266 270)" d="M-222.3,264.1c-0.7,0-1.3,0.3-1.9,0.8l-32,32l-32-32z"/>
</symbol><symbol id="riskplanner" viewBox="0 0 10.723 8.594">
<g>
	<path d="M9.115,4.034C9.117,3.85,8.98,3.829,8.914,3.819L7.092,3.723L5.799,3.729l-0.06-0.82C5.716,2.786,5.65,2.761,5.598,2.761
		H5.547L5.43,2.484c-0.006-0.013-0.02-0.019-0.033-0.019c-0.014,0-0.028,0.006-0.033,0.019L5.246,2.761H5.195
		c-0.051,0-0.117,0.025-0.14,0.148l-0.06,0.82L3.701,3.723L1.879,3.819C1.814,3.829,1.677,3.85,1.679,4.034L1.677,4.669
		C1.687,4.735,1.708,4.87,1.888,4.87c0.001,0,0.002,0,0.003,0l3.103,0.016l0.237,2.221h0.33l0.237-2.221L8.902,4.87
		c0.001,0,0.002,0,0.003,0c0.18,0,0.201-0.135,0.211-0.201L9.115,4.034z"/>
	<g>
		<path fill="none" d="M5.174,7.335c0.034-0.014,0.07-0.026,0.107-0.033C5.244,7.309,5.208,7.32,5.174,7.335z"/>
		<path fill="none" d="M5.397,7.29c-0.039,0-0.078,0.004-0.115,0.012C5.319,7.294,5.357,7.29,5.397,7.29L5.397,7.29z"/>
		<path fill="none" d="M4.509,7.854c0.004-0.486,0.4-0.881,0.887-0.881c0.487,0,0.883,0.394,0.887,0.88l2.969-0.001L7.86,5.288
			H2.935L1.542,7.855L4.509,7.854z"/>
		<polygon fill="none" points="4.033,3.265 6.762,3.265 5.397,0.751 		"/>
		<path d="M4.509,7.854L1.542,7.855l1.393-2.567H2.229L0.993,7.566C0.943,7.659,0.917,7.759,0.917,7.863
			c0,0.108,0.029,0.216,0.085,0.31C1.058,8.27,1.138,8.348,1.235,8.401L1.334,8.45l0.002-0.007c0.061,0.02,0.124,0.03,0.189,0.03
			h3.23C4.603,8.314,4.509,8.099,4.509,7.862C4.509,7.859,4.509,7.857,4.509,7.854z"/>
		<path d="M9.801,7.566L8.565,5.288H7.86l1.393,2.565L6.284,7.854c0,0.003,0,0.005,0,0.007c0,0.237-0.094,0.452-0.246,0.612h3.23
			c0.103,0,0.201-0.025,0.291-0.074c0.096-0.052,0.177-0.13,0.233-0.226c0.055-0.095,0.085-0.202,0.085-0.31
			C9.877,7.759,9.851,7.659,9.801,7.566z"/>
		<path fill="#4E4E4E" d="M5.282,8.422C5.244,8.414,5.208,8.403,5.174,8.389C5.208,8.403,5.244,8.414,5.282,8.422z"/>
		<path fill="#4E4E4E" d="M5.397,8.434L5.397,8.434c-0.039,0-0.078-0.004-0.115-0.012C5.319,8.43,5.357,8.434,5.397,8.434z"/>
		<path d="M5.397,0.751l1.365,2.514h0.705L5.928,0.43L5.882,0.352L5.878,0.354c-0.047-0.061-0.105-0.113-0.17-0.151
			c-0.007-0.004-0.014-0.008-0.02-0.011C5.513,0.096,5.281,0.097,5.105,0.192C5.011,0.243,4.934,0.317,4.884,0.401
			C4.877,0.41,4.871,0.42,4.864,0.432L3.327,3.265h0.706L5.397,0.751z"/>
		<path d="M5.968,7.854c-0.002-0.135-0.05-0.259-0.13-0.356C5.815,7.469,5.789,7.444,5.761,7.42
			C5.732,7.397,5.702,7.376,5.669,7.359C5.588,7.315,5.496,7.29,5.397,7.29c-0.039,0-0.078,0.004-0.115,0.012
			C5.244,7.309,5.208,7.32,5.174,7.335C5.123,7.356,5.075,7.385,5.033,7.42c-0.042,0.035-0.08,0.076-0.11,0.122
			c-0.031,0.046-0.055,0.096-0.072,0.15C4.839,7.727,4.832,7.765,4.828,7.803C4.826,7.82,4.825,7.837,4.825,7.854
			c0,0.002,0,0.005,0,0.007c0,0.02,0.001,0.039,0.003,0.058c0.004,0.038,0.012,0.076,0.023,0.112
			c0.017,0.054,0.041,0.104,0.072,0.15c0.031,0.046,0.068,0.087,0.11,0.122c0.042,0.035,0.09,0.064,0.141,0.086
			c0.034,0.014,0.07,0.026,0.107,0.033C5.319,8.43,5.357,8.434,5.397,8.434c0.099,0,0.192-0.025,0.273-0.069
			c0.032-0.018,0.063-0.038,0.091-0.062C5.789,8.28,5.815,8.254,5.838,8.225C5.92,8.127,5.969,8,5.969,7.862
			C5.969,7.859,5.968,7.857,5.968,7.854z"/>
	</g>
</g>
</symbol><symbol id="rss" viewBox="0 0 512 512">

<path id="rss-circle-icon" d="M256,50C142.229,50,50,142.229,50,256s92.229,206,206,206s206-92.229,206-206S369.771,50,256,50z

	 M189.203,356.592c-16.381,0-29.66-13.278-29.66-29.66c0-16.381,13.279-29.658,29.66-29.658s29.659,13.277,29.659,29.658

	C218.862,343.313,205.584,356.592,189.203,356.592z M260.083,356.592c-0.567-55.189-45.352-99.971-100.54-100.539v-43.939

	c79.544,0.568,143.91,64.934,144.479,144.479H260.083z M334.513,356.592c-0.133-46.756-18.396-90.693-51.474-123.771

	c-33.011-33.012-76.843-51.267-123.496-51.47v-43.944c120.806,0.422,218.637,98.345,218.913,219.184H334.513z"/>

</symbol><symbol id="rusty-pilot" viewBox="0 0 10.723 8.594">
<circle cx="3.905" cy="4.26" r="1.033"/>
<g>
	<path fill="none" d="M3.837,5.344c0.563,0,1.048,0.332,1.271,0.811h1.389l1.273-2.2c0.047-0.081,0.15-0.109,0.231-0.062
		c0.081,0.047,0.109,0.15,0.062,0.231l-1.175,2.03H9.6V0.771H1.372v5.384h1.193C2.789,5.676,3.274,5.344,3.837,5.344z"/>
	<path d="M9.634,0.026H1.338c-0.392,0-0.711,0.319-0.711,0.711v5.452c0,0.392,0.319,0.711,0.711,0.711h0.758V6.749
		c0-0.213,0.049-0.414,0.133-0.594H1.372V0.771H9.6v5.384H7.473L7.042,6.9h2.592c0.392,0,0.711-0.319,0.711-0.711V0.737
		C10.345,0.345,10.026,0.026,9.634,0.026z"/>
	<path d="M8.064,4.125C8.111,4.044,8.083,3.94,8.002,3.893C7.921,3.847,7.818,3.874,7.771,3.955l-1.273,2.2l-0.37,0.64L5.155,6.266
		c-0.014-0.038-0.03-0.075-0.047-0.111C4.885,5.676,4.401,5.344,3.837,5.344c-0.563,0-1.048,0.332-1.272,0.811
		C2.481,6.335,2.432,6.536,2.432,6.749V6.9v1.746h2.811V7.238l0.974,0.323l0.209-0.605l0,0L6.458,6.9l0.431-0.745L8.064,4.125z"/>
</g>
</symbol><symbol id="search" viewBox="0 0 216 146">
<path d="M172.77,123.025L144.825,95.08c6.735-9.722,10.104-20.559,10.104-32.508c0-7.767-1.508-15.195-4.523-22.283
	c-3.014-7.089-7.088-13.199-12.221-18.332s-11.242-9.207-18.33-12.221c-7.09-3.015-14.518-4.522-22.285-4.522
	c-7.767,0-15.195,1.507-22.283,4.522c-7.089,3.014-13.199,7.088-18.332,12.221c-5.133,5.133-9.207,11.244-12.221,18.332
	c-3.015,7.089-4.522,14.516-4.522,22.283c0,7.767,1.507,15.193,4.522,22.283c3.014,7.088,7.088,13.197,12.221,18.33
	c5.133,5.134,11.244,9.207,18.332,12.222c7.089,3.015,14.516,4.522,22.283,4.522c11.951,0,22.787-3.369,32.509-10.104l27.945,27.863
	c1.955,2.064,4.397,3.096,7.332,3.096c2.824,0,5.27-1.032,7.332-3.096c2.064-2.063,3.096-4.508,3.096-7.332
	C175.785,127.479,174.781,125.034,172.77,123.025z M123.357,88.357c-7.143,7.143-15.738,10.714-25.787,10.714
	c-10.048,0-18.643-3.572-25.786-10.714c-7.143-7.143-10.714-15.737-10.714-25.786c0-10.048,3.572-18.644,10.714-25.786
	c7.142-7.143,15.738-10.714,25.786-10.714c10.048,0,18.643,3.572,25.787,10.714c7.143,7.142,10.715,15.738,10.715,25.786
	C134.072,72.62,130.499,81.214,123.357,88.357z"/>
</symbol><symbol id="shareaviation" viewBox="-223 25 512 512">
<g>
	<g>
		<path d="M74,389.2c-23.8,0-43.1,18.6-43.1,41.6c0,23,19.3,41.6,43.1,41.6s43.1-18.6,43.1-41.6C117.1,407.8,97.8,389.2,74,389.2z
			 M-129,292.9c-0.4,0-0.7,0-1.1,0c-8.7,0-17-2-24.3-5.5c7.1,92,84.3,165.2,180.3,169.8c-4.3-7.3-6.8-15.6-7.2-24.5
			C-58.3,425.3-119.7,366.9-129,292.9z M-106.6,191.1c29-46.5,81.8-77.7,142.1-77.7c43.2,0,82.5,16,112,42.1
			c4.9-6.5,11.3-12,18.7-15.8c-34.1-31.1-80.1-50.2-130.7-50.2c-72.4,0-135.4,39.1-167.6,96.6c0.7,0,1.4-0.1,2.1-0.1
			C-121.7,186-113.7,187.8-106.6,191.1z M-56.2,303.1c1.1-3.9-3.6-8.4-10.5-10.2c-6.9-1.8-13.3-0.1-14.4,3.8
			c-1.1,3.9,3.6,8.5,10.5,10.2C-63.7,308.6-57.3,307-56.2,303.1z M232.7,303c-1.1-0.1-4.3-0.3-9.1-0.7c1.5-9.4,2.3-19,2.3-28.8
			c0-10.1-0.9-20-2.5-29.6l4.1-2.9l-4.7-0.3c-0.5-2.8-1.1-5.5-1.7-8.3c-5.8,3.4-12.3,5.8-19.2,7l-54.3-3.3
			c2.2-9.5,4.7-20.8,6.7-29.7c7.3,13.1,21.6,22,38,22c23.8,0,43.1-18.6,43.1-41.6c0-23-19.3-41.6-43.1-41.6
			c-23.8,0-43.1,18.6-43.1,41.6c0,0.5,0,1,0,1.5l-5.3-1.5l-26.8,47.5l-55.2-3.3l-5,3.5l58.2,4c-2,4.2-8.9,13.8-29.1,9.9
			C50.2,241.5,3.8,238,3.8,238s-19.5-2-39,23.2l-15.1,6.1c-6.7-2.3-23.9-8.3-39.3-13.7c1.7-4.4,2.6-9.2,2.6-14.2
			c0-23-19.3-41.6-43.1-41.6s-43.1,18.6-43.1,41.6c0,23,19.3,41.7,43.1,41.7c10.3,0,19.8-3.5,27.2-9.3l21.7,12.3
			c-3.9,4-6.4,8.9-4.7,14.4c-0.1-1,0-2,0.2-3.1c1.4-4.9,6.6-7.9,13.7-7.9c2.2,0,4.4,0.3,6.6,0.9c4.1,1.1,7.8,3,10.4,5.6
			c3.2,3.1,4.5,6.9,3.5,10.4c-1.1,4-4.8,6.7-10,7.6c6.8,2.5,41.8,13.2,108.8-2.6l148.1,6.2c-10.9,39-36.7,72-71.1,93.2
			c3.2,6.8,5,14.3,5,22.2c0,1-0.1,1.9-0.1,2.8c45.3-24.8,79.1-66.9,91.5-117.1l4.8,0.2l13.1-9.2C238.6,307.6,241.9,303.7,232.7,303z
			 M20.6,276.2c-20.4-11.6-48.1-13.9-51.7-14.1c9.2-11.4,18.2-16.5,24.7-18.7l30.5,6.3L20.6,276.2z M25.9,278.5l1.7-25.9l6.7,24.4
			L25.9,278.5z M41.8,275.5l-9.5-24.9l14.9,1.1l7.3,21.3L41.8,275.5z M198.9,300.6c-31.5-2.2-77.1-5.5-103.2-7.3
			c34.8-16.3,47.1-36.2,50.2-49.1c0.3-1.1,0.5-2.2,0.8-3.3l51.8,3.5c1.8,9.5,2.8,19.2,2.8,29.2C201.2,282.7,200.4,291.8,198.9,300.6
			z"/>
	</g>
</g>
</symbol><symbol id="shield" viewBox="0 0 10.723 8.594">
<g>
	<path d="M8.851,4.654c0,2.349-3.286,3.834-3.427,3.895C5.381,8.571,5.33,8.583,5.28,8.583S5.178,8.571,5.134,8.549
		c-0.14-0.061-3.427-1.546-3.427-3.895V0.368c0-0.196,0.161-0.357,0.357-0.357h6.429c0.196,0,0.357,0.161,0.357,0.357V4.654z
		 M7.78,1.082h-2.5v6.345c0.285-0.15,0.742-0.413,1.189-0.764c0.597-0.469,1.311-1.2,1.311-2.009V1.082z"/>
</g>
</symbol><symbol id="star" viewBox="0 0 75 75">
<polygon points="11.3,15.1 5,26 24.8,37.5 5,48.9 11.3,59.9 31.1,48.5 31.1,71.4 43.8,71.4 43.8,48.5 63.7,59.9 70,48.9 50.2,37.5
	70,26 63.7,15.1 43.9,26.4 43.9,3.6 31.1,3.6 31.1,26.5 "/>
</symbol><symbol id="starempty" viewBox="0 0 10.72 8.59">
<g>
	<path d="M9.77,3.37c0,0.08-0.05,0.16-0.14,0.25L7.71,5.5l0.46,2.65c0,0.02,0.01,0.06,0.01,0.11c0,0.18-0.07,0.27-0.22,0.27
		c-0.07,0-0.14-0.02-0.21-0.06L5.36,7.2L2.98,8.46C2.9,8.5,2.83,8.52,2.77,8.52c-0.07,0-0.13-0.03-0.17-0.08S2.55,8.33,2.55,8.25
		c0-0.02,0-0.06,0.01-0.11L3.01,5.5L1.08,3.62c-0.09-0.1-0.13-0.18-0.13-0.25c0-0.13,0.1-0.21,0.3-0.24l2.66-0.39L5.1,0.32
		c0.07-0.15,0.15-0.22,0.26-0.22c0.11,0,0.19,0.07,0.26,0.22l1.19,2.41l2.66,0.39C9.67,3.15,9.77,3.23,9.77,3.37z M6.98,5.26
		L8.6,3.68L6.36,3.35l-1-2.02l-1,2.02L2.12,3.68l1.62,1.57L3.36,7.49l2-1.06l2,1.06L6.98,5.26z"/>
</g>
</symbol><symbol id="starfilled" viewBox="0 0 10.72 8.59">
<g>
	<path d="M9.77,3.37c0,0.08-0.05,0.16-0.14,0.25L7.71,5.5l0.46,2.65c0,0.02,0.01,0.06,0.01,0.11c0,0.07-0.02,0.14-0.06,0.19
		S8.02,8.52,7.95,8.52c-0.07,0-0.14-0.02-0.21-0.06L5.36,7.2L2.98,8.46C2.9,8.5,2.83,8.52,2.77,8.52c-0.07,0-0.13-0.03-0.17-0.08
		S2.55,8.33,2.55,8.25c0-0.02,0-0.06,0.01-0.11L3.01,5.5L1.08,3.62c-0.09-0.1-0.13-0.18-0.13-0.25c0-0.13,0.1-0.21,0.3-0.24
		l2.66-0.39L5.1,0.32c0.07-0.15,0.15-0.22,0.26-0.22c0.11,0,0.19,0.07,0.26,0.22l1.19,2.41l2.66,0.39C9.67,3.15,9.77,3.23,9.77,3.37
		z"/>
</g>
</symbol><symbol id="sunny" viewBox="-223 25 512 512">
<g>
	<g>
		<g>
			<path d="M33,151.8c-71.3,0-129.1,57.8-129.1,129.2c0,71.4,57.8,129.2,129.1,129.2c71.3,0,129.1-57.8,129.1-129.2
				C162.1,209.7,104.3,151.8,33,151.8z M33,380.2c-54.7,0-99.2-44.5-99.2-99.2c0-54.7,44.5-99.2,99.2-99.2
				c54.7,0,99.2,44.5,99.2,99.2C132.2,335.7,87.7,380.2,33,380.2z M33,126c7.1,0,12.9-5.8,12.9-12.9V87.2c0-7.1-5.8-12.9-12.9-12.9
				c-7.1,0-12.9,5.8-12.9,12.9v25.8C20.1,120.2,25.9,126,33,126z M33,436c-7.1,0-12.9,5.8-12.9,12.9v25.8c0,7.1,5.8,12.9,12.9,12.9
				c7.1,0,12.9-5.8,12.9-12.9v-25.8C45.9,441.8,40.1,436,33,436z M-134.9,268.1h-25.8c-7.1,0-12.9,5.8-12.9,12.9
				c0,7.1,5.8,12.9,12.9,12.9h25.8c7.1,0,12.9-5.8,12.9-12.9C-121.9,273.9-127.7,268.1-134.9,268.1z M226.7,268.1h-25.8
				c-7.1,0-12.9,5.8-12.9,12.9c0,7.1,5.8,12.9,12.9,12.9h25.8c7.1,0,12.9-5.8,12.9-12.9C239.6,273.9,233.8,268.1,226.7,268.1z
				 M-94.8,171.4c5,5,13.2,5,18.3,0c5-5,5-13.2,0-18.3l-18.3-18.3c-5-5.1-13.2-5.1-18.3,0c-5,5-5,13.2,0,18.3L-94.8,171.4z
				 M160.8,390.6c-5-5-13.2-5-18.3,0c-5,5-5,13.2,0,18.3l18.3,18.3c5.1,5,13.2,5,18.3,0c5.1-5.1,5.1-13.2,0-18.3L160.8,390.6z
				 M-94.8,390.6l-18.3,18.3c-5,5-5,13.2,0,18.3c5,5,13.2,5,18.3,0l18.3-18.3c5-5,5-13.2,0-18.3C-81.6,385.6-89.8,385.6-94.8,390.6z
				 M160.8,134.9l-18.3,18.3c-5,5-5,13.2,0,18.3c5.1,5,13.2,5,18.3,0l18.3-18.3c5.1-5.1,5.1-13.2,0-18.3
				C174,129.8,165.9,129.8,160.8,134.9z"/>
		</g>
	</g>
</g>
</symbol><symbol id="tablet" viewBox="0 0 1000 1000">
<g>
	<path d="M172.7,132.5v735c0,81.7,84.2,81.7,84.2,81.7H742c0,0,84.2,0,84.2-81.7v-0.1c2.4-0.1,0-734.9,0-734.9
		c0-81.7-84.2-81.7-84.2-81.7H257C256.9,50.9,172.7,50.9,172.7,132.5z M785.2,866.1c0,42.3-45.4,42.3-45.4,42.3H258.9
		c0,0-45.4,0-45.4-42.3v-39.4h571.7V866.1z M739.8,91.7c0,0,45.4,0,45.4,42.2v651.9H213.5V133.9c0-42.2,45.4-42.2,45.4-42.2H739.8z"/>
	<path d="M466.7,865.5c0,16.9,14.2,30.6,31.6,30.6c17.5,0,31.6-13.7,31.6-30.6c0-16.9-14.2-30.6-31.6-30.6S466.7,848.6,466.7,865.5z
		"/>
</g>
</symbol><symbol id="talk-bubbles" viewBox="0 0 10.992 8.638">
<g>
	<path d="M4.318,6.281c-0.374,0-0.736-0.037-1.08-0.098C2.729,6.545,2.153,6.809,1.533,6.968C1.368,7.011,1.19,7.042,1.006,7.066
		c-0.006,0-0.012,0-0.019,0c-0.092,0-0.178-0.074-0.196-0.178c-0.024-0.117,0.056-0.19,0.123-0.27
		c0.239-0.27,0.509-0.509,0.718-1.018C0.638,5.024,0,4.134,0,3.141C0,1.405,1.933,0,4.318,0s4.318,1.405,4.318,3.141
		S6.704,6.281,4.318,6.281z M9.36,7.171c0.209,0.509,0.479,0.748,0.718,1.018c0.067,0.08,0.147,0.153,0.123,0.27
		c-0.024,0.11-0.117,0.19-0.215,0.178C9.802,8.612,9.624,8.582,9.459,8.539c-0.62-0.16-1.196-0.423-1.705-0.785
		C7.41,7.815,7.048,7.852,6.674,7.852c-1.11,0-2.129-0.307-2.896-0.81c0.178,0.012,0.362,0.024,0.54,0.024
		c1.318,0,2.564-0.38,3.515-1.067c1.024-0.749,1.589-1.76,1.589-2.858c0-0.319-0.049-0.632-0.141-0.932
		c1.036,0.57,1.711,1.478,1.711,2.502C10.992,5.711,10.354,6.594,9.36,7.171z"/>
</g>
</symbol><symbol id="topic" viewBox="0 0 10.72 8.59">
<g>
</g>
<g>
	<path d="M7.49,1.19c-0.55,0-0.99,0.44-0.99,0.99s0.44,0.99,0.99,0.99c0.55,0,0.99-0.44,0.99-0.99S8.04,1.19,7.49,1.19z M7.49,2.78
		c-0.33,0-0.59-0.27-0.59-0.59s0.27-0.59,0.59-0.59c0.33,0,0.59,0.27,0.59,0.59S7.82,2.78,7.49,2.78z"/>
	<path d="M8.68,0.01H6.01c-0.26,0-0.51,0.1-0.7,0.29L1.35,4.24c-0.19,0.19-0.29,0.44-0.29,0.7c0,0.26,0.1,0.51,0.29,0.7L4,8.3
		c0.19,0.19,0.45,0.29,0.7,0.29c0.25,0,0.51-0.1,0.7-0.29l3.98-3.97c0.18-0.18,0.29-0.44,0.29-0.7V1C9.67,0.45,9.22,0.01,8.68,0.01z
		 M9.27,3.63c0,0.16-0.06,0.31-0.17,0.42L5.11,8.02c-0.23,0.23-0.61,0.23-0.84,0L1.62,5.37C1.51,5.25,1.45,5.1,1.45,4.95
		c0-0.16,0.06-0.31,0.17-0.42l3.97-3.95C5.7,0.46,5.85,0.4,6.01,0.4h2.67C9.01,0.4,9.27,0.67,9.27,1V3.63z"/>
</g>
</symbol><symbol id="tree" viewBox="0 0 10.72 8.59">
<rect x="1.89" y="0.14" fill="none" width="6.95" height="9.34"/>
<text transform="matrix(1 0 0 1 1.8887 7.126)" font-family="&apos;FontAwesome&apos;" font-size="7.9381px">&#xF1BB;</text>
</symbol><symbol id="twitter" viewBox="0 0 512 512">

<path id="twitter-icon" d="M462,128.223c-15.158,6.724-31.449,11.269-48.547,13.31c17.449-10.461,30.854-27.025,37.164-46.764

	c-16.333,9.687-34.422,16.721-53.676,20.511c-15.418-16.428-37.386-26.691-61.698-26.691c-54.56,0-94.668,50.916-82.337,103.787

	c-70.25-3.524-132.534-37.177-174.223-88.314c-22.142,37.983-11.485,87.691,26.158,112.85c-13.854-0.438-26.891-4.241-38.285-10.574

	c-0.917,39.162,27.146,75.781,67.795,83.949c-11.896,3.237-24.926,3.978-38.17,1.447c10.754,33.58,41.972,58.018,78.96,58.699

	C139.604,378.282,94.846,390.721,50,385.436c37.406,23.982,81.837,37.977,129.571,37.977c156.932,0,245.595-132.551,240.251-251.435

	C436.339,160.061,450.668,145.174,462,128.223z"/>

</symbol><symbol id="up-sortarrow" viewBox="-371 208 216 146">
<style type="text/css">
	.st0{fill-rule:evenodd;clip-rule:evenodd;}
</style>
<path class="st0" d="M-262.5,278l-6,6h12L-262.5,278"/>
</symbol><symbol id="uparrow-thin" viewBox="-371 208 216 146">
<g>
	<g>
		<path d="M-262.7,276.5l-0.7,0.7l7.2,7.3l0.7-0.7L-262.7,276.5z M-269.5,283.8l0.7,0.7l6.1-6.2l-0.7-0.7L-269.5,283.8z"/>
	</g>
</g>
</symbol><symbol id="uparrow" viewBox="-310 254 98 49">
<path transform="rotate(180 -266 270)" d="M-222.3,264.1c0-0.7-0.3-1.3-0.8-1.9l-4.1-4.1c-0.5-0.5-1.2-0.8-1.9-0.8c-0.7,0-1.3,0.3-1.9,0.8l-32,32l-32-32
	c-0.5-0.5-1.2-0.8-1.9-0.8s-1.3,0.3-1.9,0.8l-4.1,4.1c-0.5,0.5-0.8,1.2-0.8,1.9s0.3,1.3,0.8,1.9l38,38c0.5,0.5,1.2,0.8,1.9,0.8
	s1.3-0.3,1.9-0.8l38-38C-222.6,265.4-222.3,264.8-222.3,264.1z"/>
</symbol><symbol id="upsortarrow" viewBox="-270 277 14 8">
<path class="st0" d="M-262.5,278l-6,6h12L-262.5,278"/>
</symbol><symbol id="video-document" viewBox="0 0 10.289 12.004">
<g>
	<path d="M10.289,3.644v7.717c0,0.355-0.288,0.643-0.643,0.643H0.643C0.288,12.004,0,11.716,0,11.361V0.643C0,0.288,0.288,0,0.643,0
		h6.002C7,0,7.496,0.208,7.744,0.456l2.09,2.09C10.082,2.793,10.289,3.289,10.289,3.644z M9.432,4.287H6.645
		c-0.355,0-0.643-0.288-0.643-0.643V0.857H0.857v10.289h8.574V4.287z M6.002,6.002v2.572c0,0.469-0.389,0.857-0.857,0.857H2.572
		c-0.469,0-0.857-0.389-0.857-0.857V6.002c0-0.469,0.389-0.857,0.857-0.857h2.572C5.613,5.145,6.002,5.533,6.002,6.002z
		 M8.574,5.359v3.858c0,0.087-0.054,0.167-0.134,0.201C8.414,9.425,8.387,9.432,8.36,9.432c-0.054,0-0.114-0.02-0.154-0.06
		L6.431,7.589V6.987l1.775-1.782c0.041-0.04,0.101-0.06,0.154-0.06c0.027,0,0.054,0.007,0.081,0.013
		C8.521,5.191,8.574,5.272,8.574,5.359z M6.859,3.43h2.519C9.338,3.316,9.277,3.202,9.23,3.155L7.134,1.059
		C7.087,1.012,6.973,0.951,6.859,0.911V3.43z"/>
</g>
</symbol><symbol id="weather" viewBox="0 0 10.723 8.594">
<g>
	<g>
		<path d="M7.493,1.435c-0.13,0-0.235-0.105-0.235-0.235V0.266c0-0.13,0.105-0.235,0.235-0.235c0.13,0,0.235,0.105,0.235,0.235V1.2
			C7.728,1.33,7.623,1.435,7.493,1.435z"/>
		<path d="M9.215,3.155c0-0.13,0.105-0.235,0.235-0.235h0.935c0.13,0,0.235,0.105,0.235,0.235c0,0.13-0.105,0.235-0.235,0.235H9.45
			C9.32,3.39,9.215,3.285,9.215,3.155z"/>
		<path d="M8.712,4.372c0.092-0.092,0.24-0.092,0.332,0l0.661,0.661c0.092,0.092,0.092,0.24,0,0.332
			c-0.092,0.092-0.24,0.092-0.332,0L8.712,4.704C8.62,4.613,8.62,4.464,8.712,4.372z"/>
		<path d="M6.277,1.94c-0.092,0.092-0.24,0.092-0.332,0L5.284,1.279c-0.092-0.092-0.092-0.24,0-0.332
			c0.092-0.092,0.24-0.092,0.332,0l0.661,0.661C6.369,1.7,6.369,1.848,6.277,1.94z"/>
		<path d="M8.71,1.939c-0.092-0.092-0.092-0.24,0-0.332l0.661-0.661c0.092-0.092,0.24-0.092,0.332,0c0.092,0.092,0.092,0.24,0,0.332
			L9.043,1.939C8.951,2.03,8.802,2.03,8.71,1.939z"/>
	</g>
	<path d="M6.551,3.33C6.542,3.279,6.537,3.227,6.537,3.173c0-0.528,0.43-0.958,0.958-0.958c0.528,0,0.958,0.43,0.958,0.958
		c0,0.377-0.22,0.703-0.537,0.859C8.08,4.117,8.234,4.22,8.376,4.337c0.352-0.267,0.58-0.688,0.58-1.164
		c0-0.807-0.654-1.462-1.462-1.462c-0.698,0-1.28,0.489-1.426,1.143C6.246,2.993,6.408,3.153,6.551,3.33z"/>
	<path d="M0.103,6.677c0-0.914,0.638-1.672,1.503-1.848c0.177-1.296,1.299-2.303,2.637-2.303c1.039,0,1.974,0.603,2.409,1.528
		c0.032-0.001,0.063-0.002,0.095-0.002c1.244,0,2.256,1.012,2.256,2.256c0,1.244-1.012,2.256-2.256,2.256H1.989
		C0.949,8.563,0.103,7.717,0.103,6.677z M6.481,4.795c-0.174,0.03-0.345-0.071-0.402-0.238c-0.269-0.784-1.007-1.31-1.836-1.31
		c-1.054,0-1.925,0.857-1.94,1.911C2.3,5.35,2.146,5.506,1.953,5.512C1.32,5.532,0.824,6.043,0.824,6.677
		c0,0.643,0.523,1.165,1.166,1.165h4.757c0.846,0,1.535-0.688,1.535-1.535S7.593,4.773,6.747,4.773
		C6.658,4.773,6.569,4.78,6.481,4.795z"/>
</g>
</symbol><symbol id="weathernew" viewBox="0 0 10.72 8.59">
<g>
	<g>
		<path d="M7.49,1.44c-0.13,0-0.23-0.11-0.23-0.23V0.27c0-0.13,0.11-0.23,0.23-0.23c0.13,0,0.23,0.11,0.23,0.23V1.2
			C7.73,1.33,7.62,1.44,7.49,1.44z"/>
		<path d="M9.22,3.16c0-0.13,0.11-0.23,0.23-0.23h0.93c0.13,0,0.23,0.11,0.23,0.23c0,0.13-0.11,0.23-0.23,0.23H9.45
			C9.32,3.39,9.22,3.28,9.22,3.16z"/>
		<path d="M8.71,4.37c0.09-0.09,0.24-0.09,0.33,0l0.66,0.66c0.09,0.09,0.09,0.24,0,0.33c-0.09,0.09-0.24,0.09-0.33,0L8.71,4.7
			C8.62,4.61,8.62,4.46,8.71,4.37z"/>
		<path d="M6.28,1.94c-0.09,0.09-0.24,0.09-0.33,0L5.28,1.28c-0.09-0.09-0.09-0.24,0-0.33c0.09-0.09,0.24-0.09,0.33,0l0.66,0.66
			C6.37,1.7,6.37,1.85,6.28,1.94z"/>
		<path d="M8.71,1.94c-0.09-0.09-0.09-0.24,0-0.33l0.66-0.66c0.09-0.09,0.24-0.09,0.33,0c0.09,0.09,0.09,0.24,0,0.33L9.04,1.94
			C8.95,2.03,8.8,2.03,8.71,1.94z"/>
	</g>
	<path d="M6.55,3.33c-0.01-0.05-0.01-0.1-0.01-0.16c0-0.53,0.43-0.96,0.96-0.96c0.53,0,0.96,0.43,0.96,0.96
		c0,0.38-0.22,0.7-0.54,0.86c0.16,0.08,0.32,0.19,0.46,0.31c0.35-0.27,0.58-0.69,0.58-1.16c0-0.81-0.65-1.46-1.46-1.46
		c-0.7,0-1.28,0.49-1.43,1.14C6.25,2.99,6.41,3.15,6.55,3.33z"/>
	<path d="M0.1,6.68c0-0.91,0.64-1.67,1.5-1.85c0.18-1.3,1.3-2.3,2.64-2.3c1.04,0,1.97,0.6,2.41,1.53c0.03,0,0.06,0,0.1,0
		C7.99,4.05,9,5.06,9,6.31c0,1.24-1.01,2.26-2.26,2.26H1.99C0.95,8.56,0.1,7.72,0.1,6.68z M6.48,4.8c-0.17,0.03-0.35-0.07-0.4-0.24
		C5.81,3.77,5.07,3.25,4.24,3.25c-1.05,0-1.92,0.86-1.94,1.91c0,0.19-0.16,0.35-0.35,0.35C1.32,5.53,0.82,6.04,0.82,6.68
		c0,0.64,0.52,1.17,1.17,1.17h4.76c0.85,0,1.54-0.69,1.54-1.53S7.59,4.77,6.75,4.77C6.66,4.77,6.57,4.78,6.48,4.8z"/>
</g>
</symbol><symbol id="windy" viewBox="-223 25 512 512">
<style type="text/css">
	.st0{fill-rule:evenodd;clip-rule:evenodd;}
</style>
<g>
	<g>
		<g>
			<path class="st0" d="M65,261.7c0.4,0,0.8,0,1.2,0c41.7,0,75.6-35.3,75.6-78.9c0-43.6-33.9-78.9-75.6-78.9
				c-41.8,0-75.6,35.3-75.6,78.9c0,0.1,0,0.2,0,0.4h37.4c0-0.3,0-0.6,0-0.9c0-21.7,16.9-39.3,37.7-39.3c20.8,0,37.7,17.6,37.7,39.3
				c0,21.7-16.9,39.3-37.7,39.3c-0.2,0-0.5,0-0.7,0v0.8h-205.4v39.3L65,261.7L65,261.7z M122.8,281c-2.5,0-5.1,0.1-7.5,0.4H-178
				v39.3h299.4v-0.9c0.2,0,0.5,0,0.7,0c20.8,0,37.7,17.6,37.7,39.3c0,21.7-16.9,39.3-37.7,39.3c-20.5,0-37.2-17.1-37.7-38.5H47.3
				c0.1,43.4,33.8,78.6,75.4,78.6c41.7,0,75.4-35.3,75.4-78.7C198.2,316.2,164.4,281,122.8,281z M179.6,143.6v38.9
				c10.1,0.4,18.2,9.1,18.2,19.8c0,10.7-8.1,19.3-18.2,19.8v0.5h-18.4l-19.4,28.7v10.5h32.3c1.7,0.2,3.4,0.3,5.2,0.3
				c31.3,0,56.8-26.5,56.8-59.2C236.1,170.2,210.8,143.7,179.6,143.6z"/>
		</g>
	</g>
</g>
</symbol><symbol id="word-document" viewBox="0 0 10.289 12.004">
<g>
	<path d="M10.289,3.644v7.717c0,0.355-0.288,0.643-0.643,0.643H0.643C0.288,12.004,0,11.716,0,11.361V0.643C0,0.288,0.288,0,0.643,0
		h6.002C7,0,7.496,0.208,7.744,0.456l2.09,2.09C10.082,2.793,10.289,3.289,10.289,3.644z M9.432,4.287H6.645
		c-0.355,0-0.643-0.288-0.643-0.643V0.857H0.857v10.289h8.574V4.287z M1.561,5.861H2.03l1.099,4.428h1.065L5.051,7.04
		c0.034-0.1,0.054-0.201,0.067-0.308c0.007-0.053,0.014-0.107,0.014-0.161h0.026l0.021,0.161c0.02,0.094,0.026,0.201,0.06,0.308
		l0.857,3.249h1.065l1.099-4.428h0.469V5.145h-2.01v0.717h0.603L6.658,8.795c-0.026,0.107-0.04,0.221-0.047,0.308L6.598,9.244H6.571
		c0-0.04-0.013-0.094-0.02-0.141c-0.02-0.087-0.034-0.201-0.061-0.308L5.526,5.145H4.763L3.798,8.795
		C3.771,8.902,3.765,9.016,3.745,9.104L3.718,9.244H3.691L3.678,9.104C3.671,9.016,3.657,8.902,3.631,8.795L2.967,5.861H3.57V5.145
		h-2.01V5.861z M6.859,3.43h2.519C9.338,3.316,9.277,3.202,9.23,3.155L7.134,1.059C7.087,1.012,6.973,0.951,6.859,0.911V3.43z"/>
</g>
</symbol><symbol id="x" viewBox="-291 253 56 56">
<path d="M-280.4,294.1l13.1-13.1l-13.1-13.1l4.4-4.4l13.1,13.1l13.1-13.1l4.4,4.4l-13.1,13.1l13.1,13.1l-4.4,4.4l-13.1-13.1
	l-13.1,13.1L-280.4,294.1z"/>
</symbol><symbol id="youtube" viewBox="0 0 10.7 8.6">
<g>
	<path d="M8.8,6.1c0,0.7,0,1.3-0.1,1.6c0,0.2-0.1,0.3-0.3,0.5C8.2,8.4,8.1,8.4,7.9,8.5C7.3,8.5,6.4,8.5,5.3,8.5s-2,0-2.6-0.1
		c-0.2,0-0.3-0.1-0.5-0.2C2.1,8.1,2,8,1.9,7.8C1.8,7.4,1.8,6.9,1.8,6.1c0-0.7,0-1.3,0.1-1.6C2,4.3,2.1,4.1,2.2,4
		c0.1-0.1,0.3-0.2,0.5-0.2c0.6-0.1,1.4-0.1,2.6-0.1s2,0,2.6,0.1c0.2,0,0.3,0.1,0.5,0.2c0.1,0.1,0.2,0.3,0.3,0.5
		C8.7,4.8,8.8,5.4,8.8,6.1z M3.3,5h0.5V4.5H2.3V5h0.5v2.7h0.5V5z M4.1,0.1h0.5L4,2v1.3H3.5V2c0-0.2-0.1-0.6-0.3-1
		C3.1,0.7,3,0.4,2.9,0.1h0.5l0.3,1.2L4.1,0.1z M4.6,7.6h0.4V5.3H4.6v1.8C4.5,7.2,4.5,7.3,4.4,7.3c-0.1,0-0.1,0-0.1-0.1
		c0,0,0-0.1,0-0.2V5.3H3.9v1.8c0,0.2,0,0.3,0,0.3c0,0.1,0.1,0.2,0.3,0.2c0.2,0,0.3-0.1,0.5-0.3V7.6z M5.8,1.7v0.8
		c0,0.3,0,0.4-0.1,0.6C5.6,3.2,5.4,3.3,5.2,3.3C5,3.3,4.8,3.2,4.7,3.1C4.6,3,4.6,2.8,4.6,2.5V1.7c0-0.3,0-0.4,0.1-0.5
		C4.8,1,5,0.9,5.2,0.9c0.2,0,0.4,0.1,0.5,0.2C5.8,1.3,5.8,1.5,5.8,1.7z M5.4,2.6v-1c0-0.2-0.1-0.3-0.2-0.3C5.1,1.3,5,1.4,5,1.6v1
		c0,0.2,0.1,0.3,0.2,0.3C5.3,2.9,5.4,2.8,5.4,2.6z M6.7,6.9V6c0-0.2,0-0.4,0-0.5C6.6,5.4,6.4,5.3,6.3,5.3C6.1,5.3,6,5.4,5.8,5.5v-1
		H5.4v3.1h0.4V7.4C6,7.6,6.1,7.7,6.3,7.7c0.2,0,0.3-0.1,0.3-0.3C6.6,7.3,6.7,7.2,6.7,6.9z M6.2,6v1c0,0.2-0.1,0.3-0.2,0.3
		c-0.1,0-0.1,0-0.2-0.1V5.8C5.9,5.7,6,5.7,6.1,5.7C6.2,5.7,6.2,5.8,6.2,6z M7.4,0.9v2.3H7V3C6.8,3.2,6.6,3.3,6.5,3.3
		c-0.1,0-0.2-0.1-0.3-0.2c0-0.1,0-0.2,0-0.4V0.9h0.4v1.7c0,0.1,0,0.2,0,0.2c0,0.1,0,0.1,0.1,0.1c0.1,0,0.2-0.1,0.3-0.2V0.9H7.4z
		 M8.2,6.9L8.2,6.9L7.8,6.8c0,0.2,0,0.3,0,0.3c0,0.1-0.1,0.2-0.2,0.2C7.5,7.3,7.4,7.2,7.4,7V6.6h0.8V6.1c0-0.2,0-0.4-0.1-0.5
		C8,5.4,7.8,5.3,7.6,5.3c-0.2,0-0.4,0.1-0.5,0.2C7,5.6,7,5.8,7,6.1v0.8c0,0.2,0,0.4,0.1,0.5c0.1,0.2,0.3,0.2,0.5,0.2
		c0.2,0,0.4-0.1,0.5-0.2c0.1-0.1,0.1-0.2,0.1-0.3C8.2,7.1,8.2,7,8.2,6.9z M7.8,6v0.2H7.4V6c0-0.2,0.1-0.3,0.2-0.3
		C7.8,5.7,7.8,5.8,7.8,6z"/>
</g>
</symbol><symbol id="zoomin" viewBox="0 0 512 512">

<path fill="#ffffff" id="magnifier-6-icon" d="M460.475,408.443L351.4,299.37c15.95-25.137,25.2-54.923,25.2-86.833

	C376.601,122.914,303.687,50,214.062,50c-89.623,0-162.537,72.914-162.537,162.537s72.914,162.537,162.537,162.537

	c30.326,0,58.733-8.356,83.055-22.876L406.918,462L460.475,408.443z M96.315,212.538c0-64.927,52.819-117.748,117.746-117.748

	c64.926,0,117.748,52.821,117.748,117.748c0,64.926-52.822,117.747-117.748,117.747C149.135,330.285,96.315,277.464,96.315,212.538z

	 M282.276,231.882h-47.729v47.729h-36.859v-47.729h-47.73v-36.86h47.73v-47.729h36.859v47.729h47.729V231.882z"/>

</symbol><symbol id="zoomout" viewBox="-223 25 512 512">
<path fill="#ffffff" id="magnifier-6-icon" d="M237.5,433.4L128.4,324.4c16-25.1,25.2-54.9,25.2-86.8C153.6,147.9,80.7,75-8.9,75
	c-89.6,0-162.5,72.9-162.5,162.5S-98.6,400.1-8.9,400.1c30.3,0,58.7-8.4,83.1-22.9L183.9,487L237.5,433.4z M-126.7,237.5
	c0-64.9,52.8-117.7,117.7-117.7c64.9,0,117.7,52.8,117.7,117.7c0,64.9-52.8,117.7-117.7,117.7S-126.7,302.5-126.7,237.5z
	 M59.3,256.9l-132.3,0V220H59.3V256.9z"/>
</symbol></svg>